<mxfile host="app.diagrams.net" modified="2022-03-21T14:35:42.998Z" agent="5.0 (Windows)" etag="-yUfJY3X0OBjCYMBDY-b" version="17.1.2" type="github" pages="2">
  <diagram id="AEjOwlLBTznw3ZyYqxkl" name="Page-1">
    <mxGraphModel dx="1422" dy="752" grid="1" gridSize="10" guides="1" tooltips="1" connect="1" arrows="1" fold="1" page="1" pageScale="1" pageWidth="827" pageHeight="1169" math="0" shadow="0">
      <root>
        <mxCell id="0" />
        <mxCell id="1" parent="0" />
        <mxCell id="HqMItKPm7-6f6RwEKrBQ-1" value="&lt;div style=&quot;font-size: 16px&quot;&gt;&lt;b&gt;CI / CD&lt;/b&gt;&lt;/div&gt;&lt;div&gt;&lt;br&gt;&lt;/div&gt;&lt;font style=&quot;font-size: 14px&quot;&gt;Continuous Integration and Continuous Delivery/Continuous Deployment&lt;/font&gt;&lt;br&gt;" style="rounded=0;whiteSpace=wrap;html=1;" vertex="1" parent="1">
          <mxGeometry x="40" y="40" width="1580" height="80" as="geometry" />
        </mxCell>
        <mxCell id="HqMItKPm7-6f6RwEKrBQ-6" value="" style="edgeStyle=orthogonalEdgeStyle;rounded=0;orthogonalLoop=1;jettySize=auto;html=1;fontSize=14;" edge="1" parent="1" source="HqMItKPm7-6f6RwEKrBQ-4">
          <mxGeometry relative="1" as="geometry">
            <mxPoint x="180" y="520" as="targetPoint" />
          </mxGeometry>
        </mxCell>
        <mxCell id="HqMItKPm7-6f6RwEKrBQ-4" value="" style="shape=image;verticalLabelPosition=bottom;labelBackgroundColor=default;verticalAlign=top;aspect=fixed;imageAspect=0;image=data:image/png,iVBORw0KGgoAAAANSUhEUgAAASwAAAEsCAYAAAB5fY51AAAfwUlEQVR4Xu2dT3LcRrKHE90ManbWnMDyCUyNqbXlE4g+gaUTjLQz+RZDb0jvTJ3ArROYOoHptThP1AlMnWCo3RuH2PUigUY3gMafAlDVjWp8HeGYsQkksr7M+qH+IxJ+EIAABAIhEAXiJ25CAAIQEASLJIAABIIhgGAFEyochQAEECxyAAIQCIYAghVMqHAUAhBAsMgBCEAgGAIIVjChwlEIQADBIgcgAIFgCCBYwYQKRyEAAQSLHIAABIIhgGAFEyochQAEECxyAAIQCIYAghVMqHAUAhBAsMgBCEAgGAIIVjChwlEIQADBIgcgAIFgCCBYwYQKRyEAAQSLHIAABIIhgGAFEyochQAEECxyAAIQCIYAghVMqHAUAhBAsMgBCEAgGAIIVjChwlEIQADBIgcgAIFgCCBYwYQKRyEAAQSLHIAABIIhgGAFEyochQAEECxyAAIQCIYAghVMqHAUAhBAsMgBCEAgGAIIVjChwlEIQADBIgcgAIFgCCBYwYQKRyEAAQSLHIAABIIhgGAFEyochQAEECxyAAIQCIYAghVMqHAUAhBAsMgBCEAgGAIIVjChwlEIQADBIgcgAIFgCCBYwYQKRyEAAQSLHIAABIIhgGAFEyochQAEECxyAAIQCIYAghVMqHAUAhBAsMgBCEAgGAIIVjChwlEIQADBIgcgAIFgCCBYwYQKRyEAAQSLHIAABIIhgGAFEyochQAEECxyAAIQCIYAghVMqHAUAhBAsMgBCEAgGAIIVjChwlEIQADBIgcgAIFgCCBYwYQKRyEAAQSLHIAABIIhgGAFEyochQAEECxyAAIQCIYAghVMqHAUAhBAsMgBCEAgGAIIVjChwlEIQADBIgcgAIFgCCBYwYQKRyEAAQSLHIAABIIhgGAFEyochQAEECxyAAIQCIYAghVMqHAUAhBAsMgBCEAgGAIIVjChwlEIQADBIgcgAIFgCCBYwYQKRyEAAQSLHIAABIIhgGAFEyochQAEECxyAAIQCIYAghVMqHAUAhBAsMgBCEAgGAIIVjChwlEIQADBIgcgAIFgCCBYwYQKR2MCx9dH8mB6JaeP7yAyPgII1vhiHnaJj99dSRR9KyIzmZs38vOTq7ALhPdtCCBYbWhx7fYJrARr4Yu5ERNdyIPpW1pd2w+Pbw8QLN+Ese+WwJpgLc3fiTEzMXuv5efHt24firWhEECwhhIJ/LAjUC1Yq/uNaDdxJueHb+yMclUoBBCsUCKFnwkBG8FKWRm5lSiayXzyhlbXbiQQgrUbcRxPKdoIVp4Kg/Q7kCUI1g4EcVRF6C5YCSZtdYmcMkgfZtYgWGHGbbxe9xWsFTldx3Up8+lPdBfDSScEK5xY4WnbMSxbYgzS25La+nUI1tZDgAOtCLhrYZU99q2cHR618oeLN0oAwdoobh7Wm4BPwTLmDzl/8rS3jxjwRgDB8oYWw14IIFhesIZiFMEKJVL4mRBAsEadCQjWqMPvuPDH736RaHLndaEmguU4aGGZQ7DCitdwvT25/lVEnmcc9LNQE8Eabg5swDMEawOQd/4R62KVKfLiNAVX+/oQrJ1Pp7oCIlijDr+DwteKVc7+nUh00bu7iGA5CFq4JhCscGO3fc/txaroa/fuIoK1/bhv0QMEa4vwg350d7HKdxfn8qrVqaEIVtBp09d5BKsvwTHe70SsUnDmJzl7cmqNEcGyRrWLFyJYuxhVX2U6ff9Q/vr8u0h04O4RCJY7lrtvCcHa/Ri7KaEXsVLXECw3ARqHFQRrHHHuV0pvYoVg9QvM+O5GsMYX83Yl9ipWCFa7YHA1ghV6Dvz4/lFcBB9fivEuVghW6Om3af8RrE0Td/E8FanJ/TMR8zwzAP5Szg5fuzAf29iIWCFYzuI1EkMIVmiBPr6eSSQ/lLpt5FIeTF/0/qDoxsQKwQot/bbtL4K17Qi0fb6KyX/vrySSrytE61ai6fdy9vimrenNtqxS75gl7BSnkd6EYIUY+CbRSsrUvovYt2Vl5E1l66+SM4IVYgpuy2cEa1vk+z7XRrTadBH7idVHkemRzD8/lEn0e7uiIVjteI37agQr5PjbiVZzF7GfWL2V/enzeNzsx3dPEayQE2r4viNYw49RvYc2olXXRewjViZ6JeffXCwdRLBCz6bB+49gDT5EFg7ailaxi9hdrJIuYHFgH8GyCBaX9CGAYPWhN6R77UUr6SLuy23HjcyrLmCx/AjWkDJiJ31BsHYprLaipWU2ciuRJKvkbX/FLiCCZUuO6xwRQLAcgRyMmTaiZeu0kU8STZ82ru2ihWVLlOs6EkCwOoIb9G0uRUu/hvxg78hq9TyCNei02AXnEKxdiGJZGZyIVss1UgjWrmbTYMqFYA0mFB4c6Spa2gU05qjVWevqPoLlIYiYzBJAsHY9H5KTHf5sVcy5+a61WCFYrRBzcTcCCFY3bmHcdfL+QORet8o8bOmwfkPwlZx9M2t1Hy2sVri4uD0BBKs9szDu6C5W2fLNZH/6ymrAnRZWGHkRuJcIVuABLHXfjVgtTJsbkb0XjUsaEKxdzKTBlQnBGlxIejrkVKyWvth1EekS9gwetzcRQLCaCIX0d1ux0llAiVe6lx8CWF3m+i4ighVStgTpK4IVZNhKnLYXqw9ipkfyN7mrPbm0kktNFxHB2pVsGmw5EKzBhqaFY7ZiJfJazg5fLi13XaclUt5FRLBaBI1LuxBAsLpQG9I9NmKVdAGfy/nh5Zrr3UVLTeW7iAjWkDJjJ31BsEIOq51YJV3Auu8W9hKtTBcRwQo5m4LwHcEKIkydx6zyXcC6svYSLbkTIy/EmDuOSA41ocLwG8EKI055L5taVnVdQH+ipWds6efHnrZD2nKD9fG7K4mib9s9w/JqPZni/ElL/y1tc5kTAgiWE4wbNNIsVs1dwCbR+utet+Q820ypEKzNcN6NpyBYocXx5PpCjDyXSL4ocd2+C9hU7rovTDfd2+rvCFYrXCO/GMEKNQGOr49EJP1HS1E+C9infBsRLQSrT4jGdi+CtQsR1yNk6mYB+5TRu2ghWH3CM7Z7EayxRbxLeb2KFoLVJSRjvQfBGmvk25bbm2ghWG1DMebrEawxR79t2b2IFoLVNgxjvh7BGnP0u5TduWghWF3CMNZ7EKyxRr5PuZ2KFoLVJxRjuxfBGlvEXZXXhWgZ+SDGvGz1wQtWuruKYJB2EKwgwzYQp7uKlpE3YsyslVClRUawBhL87biBYG2H++481Va04s/dmwuZ7816rRlDsHYndzqUBMHqAI1bCgTqREs3FEeTWetPhlVBRrBGnX4I1qjD77DwRdHSbl80vbD62k4bNxCsNrR27loEa+dCusUC6cZsMXeyv3dh/S3Dtu4iWG2J7dT1CNZOhXMEhUGwRhDk6iIiWKMOf4CFR7ACDJo7lxEsdyyxtAkCCNYmKA/2GQjWUEOTnLH+VGTyHzHRx15LAYZaxi5+IVhdqO3MPQjW0EOZHIn8PDmsz6h43UoU3YgxtyKTW3kQffA2wD1ENgjWEKOyMZ8QrI2hdvCgnHjJlzmLyQcgbkVU0OY3Mp/eyfk//nDw1GGZQLCGFY8Ne4NgbRi4s8fViVf2IUZFTP8xNxJN7sRE+tWZT87XRzkrWIMhBGtTpAf5HARrkGFp6ZSteK2ZNTdiojuJoqt4/ZSZ6L8Pe7wMwWqZHLt1OYK1W/EU6SxeBRDaxRRRMRvWeBmCtWsZ26o8CFYrXIFd7Eq88sXWrzzf5MbLzN7HjXUxEazAktCtuwiWW57DtZaKV/U3Dfv7XjZe5rqLiWD1j1PAFhCsgIPX2fXsNw3LP8ja2XT1jSXjZV2WZCBYHmITjkkEK5xY+fF0K+JlMV5WtSQDwfKTB4FYRbACCdRG3ByCeNWNl8VLMu4vRKIDLzz07K7zJ0+92MaoEwIIlhOMO2hkeOLlHzKC5Z9xzycgWD0BjuL2sYgXgjX4dEawBh+igTm4y+KFYA0s2dbdQbAGH6IBO7hL4qWfHBM5lfPDywETH71rCNboU8ARgFDFy9fZ846wYiZPAMEiI9wTUPGKRI/EeebeuBOLH8VEF/JgMhvV0TxO0G3XCIK1Xf67/XQ9hPCvuZ7jdTQQ8Xorc3PR6QOuux2pYEqHYAUTqsAd3ZZ4ufqAa+D4d8V9BGtXIhlSOTYhXq4/4BoS3x32FcHa4eAGUTSX4qWtKZFLLx9wDQLm7juJYO1+jMMpYXfx+igSncr+5JJB9HDC3cVTBKsLNe7xT8BGvHRJgjEzBtH9h2MoT0CwhhIJ/KgmkBevAxEzk/nejE+fjS9pEKzxxZwSQyBYAghWsKHDcQiMjwCCNb6YU2IIBEsAwQo2dDgOgfERQLDGF3NKDIFgCSBYwYYOxyEwPgII1vhiTokhECwBBCvY0OE4BMZHAMEaX8wpMQSCJYBgBRs6HIfA+AggWOOLOSWGQLAEEKxgQ4fjEBgfAQRrfDGnxBAIlgCC5Tt0x++uJIq+FTE/ydmTU9+P20n7MBx2WH9891Qm0e+xk2eHXjUlMf7j+0cSmS/j//8g+tDrELSTf+vXUtTWRzn7ZrYkffLuVCT6lxi5lQfTx72eMezw5b3zVdn+590zmUfK+qFEchD/r5gbMdGdRHIrRq7ETP/YiSNYmhimuaXlP3vyOKT0iOve5P6ZGPNIJNI4rn5RdCXGaH15O+j6snnByiikRC9yQtMm+vG5Rff/SW4ptChOrs3S1Nx8N5pD15oqWxu+eu3J+wORz7+uJXeZnV35knETwxBzK67k8otVHOPqFL2S828u2qbLRq7fuGDFFeH6Nm4Z6Zv5/PC7TgU9/vdLicwv8b3z6Ve5t3uadHrutpke7MSb3wZSU2WzsZFekyTGb0lrSpNYPkhkLmUuV/G/R5MDieYPF5VA39p/yPmTp6WPiN/s8lDOHt+0cWEr1zYxPL6+kUi+jnmcH+ZbKVtxuOah+lL/7/1vEkk2Lh/js+jF3GWaVw/FmINkOKGkATCkcm1JsFS9/1kqNrZwTt69jytLWUXRQP3f5wP5297NoJu3tmW1va6pstnaSVqvf8ZiFYu+Oaptpcbd/PuD0k+vH1/PJJIfghlXs2GolebnJ4lwD/UXt47vdawnfeG8ETM9rX15p6etGnNXGsshlHUrgpX0pbVCdGt+Zu/v060cQgBc+mBT2WyetxyniVtW3/dKXlc+2fjt4prQ/C0rc1I/3lu/cFxw25SNrQiWFi5tWncZvDy5Tlpo+vZ/MH00qlZUXWK4qmxLOzqZcfioVy668qmXEy1uDs3fsqItex/ySaLp0yC64rYh2p5g1YxBNTl/fP2nRPJI9Esm54c6e8Uvfgk4WtZwcq2TGTquUT0uZUvclU+2z+t7XWj+FsubHdvt2zruy9LH/VsTrNwsn7yWs8OXVuU7vj6SSHQwWMTFDGAy/vKtRNGqJWGiKzn/xx9W/vi4KLv0Q+3b+uKqsvVp/a5VIEci6oJzMgj9LI61DjKLuZVocifzyZvl2I4rhmsc/jcZ0I7MU9H8iqJPXlo+y5e5g5eNDfNjx+VKc185xbzmN3K/92EZny6CFcfdfC3RPJkkMZMbmzq1vsjr5PpSRJ7F66XOD7+y4SPLQdya7spyHVbTzNX9v0SkqoV2JxK9Wlt20TahbQHH4w7zH8SY53HrsfjTGdVo+qo2ydv6VgV8xXh9BtYmSNmp/7rrsy8cW05Ze7blTQaT/yliqhfTGnMh509eNbZSbXIr9TEZS9IcO1oOfud5aI5dyP7ktZNhjXhdovnV2cu8KnZN5dL6HEWzVuXSSQJz/0thRjPrwUz2p6/iyTTbhaMrP8vruMb8wd5PVexLBCsDWKaPG984dWuvskVrSqrioGT8yXGjSy1U0lWF9Z8vS2e2bCvJMmktVuYmrUZNtGRGJ34LyIfl1PNyulnuxMiLykHwtr5VJmR2rZy5kf2971pVqCEJVpwzn39frkFafmJe4x3pLOjTeJlC8nu9mt6v2C3QlFsp06x4xPE0f0i0WBKy/tw7mZvve8882rzMbV44ddfUlytTd2IjdyLT7xrrddGmyNt4YfKqPj5bVIobmcsrK8EqLstZ2izGvDq/y5fRH1/raukvrMajcm+QwtqrNoJ1fP17rOQqCg+mT0srY7KKXjbSwspWAn3jnh9qy3P1S7qtl4v1P9Wr910Jlj4528qKk2fvRWPilSW6rU++WlhprJO3QPmWJX12FCnfL5JKFq/kL7/WRrDyFfCtzKcvS5cTJK0KXfaxEEyLl3admPge2y2Wa3/6vLTu6AtYRMu14FkjWtkhHhWVMptJA0Mn2rQ3drVshVVtzcnmUpVNLYu2sBLtuZTzw++LaKsEa7FOR+7k7PDvtS+AVfK9lbNDhVL+q0uqZH2KTvl2m7K3rYCpZzYVUQdK9Ve3uji3lKOiMrX1reltmxOt+OKkWX76OLPosMGIrU82nIqParKdHYBuWv6SiIdWBq1k1eLWJFjZ9U82k0LJuJo+9+u4VdF1u0+u99FjB0llncrUG5u9qjmeFeXKr/drnkBLh5BSH8sEK+H53mpSrqELXS5Y2UStm9Vos/aqLqm6VIxsEJsqSTHgfZ+Xe/ZiEWbV7F1b35oEK2lpZd+W+l/ajbvY+tSFU5Ptti2OXAuiYwsrFfk2M6y2daAuXlkbLiaj1l4Oaa+kxWB+03q+1d8/yv70oPFFmIjR7fKlUiZY6UvKdsnTalfMmmBW76xebdWpVtnVhuZPcn64GuspC2JoLSwb4dBrmjbeNlVg2+cUr0vehDpgnexOSFqnOub3qnFRqa1PrgUrN5tcM3xQLOty/K2DYOUWRLdccLta+2Y/Y5713adgZXslbcQwLzDrvaLlC6XF3sVsq79UsBZLnnQ80mblwUrg1ib+6gRrtVVnf/r3in6x/dqrxmb7Yi+jNsHne9+32mtoWwHTZOpSEauEJdvFKQ2W5yUEcTP/88Vqz5lFN9GWVxdOdbZXi4vb7flr8rf2ZZiZRGp79EnaumvTMtuUYGVbLU2Nhcpue2HIJ9djajF2l221FRl3sZnNu4L2VAtWU3cvq/A2s4lNgpUf6PPTxekjWMpj+vlrMRNdK6QLZB+tjnVZGN6GYKVlyg5YJs2t6pnEJgHow6nOdtcWS5O/tYKVHmvUottULH+bJT4bE6yGoYi6lnuVwGTrYBtxr7svN9geWZ4Hp0ftLJY2FVqP9YdtLRcrSlnTMR2Yt9sq0iRY5WMz+l9nMp/+VNviakroYvBsWw7Na1s+SBQve0jOEtumYOnz4+b+58tla6tipqVxXZMvwUq3p9gMEGdj1hTfutxajof0EKyq2NaJwvJFkh6r5PgAx5X41092lfmYFaxsY8OmjpbZq6tPuWfZACtc006wMlt1it3C5VYRy76uLYxkjc5LMdHL1exQQzenKaG7CFbS5NYFhipIH+OpW4luxMx1OcHtUkDrmsOxCHvuEpblwCqZy3ce2PpkK+y24tI0FlWVz03++hKsbC+iTYsjW450LFin8utm0dvW5a6tVX1ONmezgmBbR9vUp5xgmZ9qi2l0Z0vculr9or2X2aU79S2s7LRs9gAx27VXucB1aJonz9FmZNKCqermtA1eU0VMm7jJgsbntYPYQxSsXHe9ZKCzSQDKWlhV45jFDKztEi7OrdpkC2u5c6NHC0vzoO040aqFlY4F38n+9KvGWTdb4erTcszmbDauTRNIlS+UTMOmKOxZregq+ln9auSzXGeRWbexWnth/9boqt5xKyUDpGwdTdvgNfXV09Zj0zqh2Lf0bKkBdAnzb/bkhNeyAeMugmU7E1XX7auZrq7Nw6aupNUYVoutZkuxWQzYdx10Vzu55RGWvZHGShkfuLkQwg7rxKpytqu41A66Z3ZoFA/1tCln4ZrmA+OLrSk1kJ6bZVOhl8Hv0MLKOruCvL6Yta0YLoNdIjLZyQabVsWyMu2gYGVb2DaC1bRNazVLaL9PtclmtotTKs7ZjfktllLEdlNRsJyOr2yBpMMC4q6V1XWJSPKSXczuF1qdXWb0Ek7J/mP9FVtRjhfPNgtWUsDFVp3oVeyUHoPctpncVlSKwa9T/2wLzEZk0oCVAW7qLmb9ygV4QIKV6xKWDPbatrCysbdZQ9O0yLPLqR7FMZCyLw/V5VZ+3ZHdOiAtd3bFt41Y17UW8otQS7ectG5s5MrVYkA/P2u3/v0Gm/WXrevA8gjr7sevL55pK1jJjKC+wWLBir612meYLVhvwVq00MpEpqmC5lpqme5lk2A1LdfI7YnzLFgqjj8/XmwGb0jv42s9M3yxTapkPc3qjdhcgVfX1rcOstsvYveqFnlm1ts1bXkpvhC67iWsGmSuw9h1zViVzfxsWfvtVGV2sz2FplxNRXi1RaZ8XK5qBrGy9bhYbZ/+vWycKvsisz0PTPOpZLuZnWDlNy4uXGuxsCxuNtZ0CZMWkpGzw9elXPInOZSvvF8NvFfvRl+B00P/a5YiLFqUVYP8ydtXP7ahm7HfVjaH4xaKo1nCeFwtusidE1WEtX50R7kgLWNhMa6Tj/1Mzg5frMVodfqC7jtNJ0jKNyrn1tvVrBVb7ez/JEa0ha/7+rptfs7tDZTmUxhOrvWUjudxL8Ll6aDZsaNkV8KpnB++qX39pEccFT+btxKgxZ7HhnLFdj7/ljkho/yY7SS39VQGjWN1XcrXAa23yY6LqoH17Mx101DSybXaOi3bx2wnWLHgpG/G2C27tVe2LazVrNytiLmUyeLIj3SRZrqIrG4vUlFUdde32plP70TmyUK0+DSI9EiRSJcslAPOvmXic4TkIj5gLP7dH4lEevSMTsEupmlrbLkTrNVn0uLvD+oO+Umy4dksvpST/RJL3SbffMtlJjJ9LXMVBT00cfph7QSIXLLpKRHRLMcjWnwfUbtO6blIdTOBaxV3EXON1eT+oZhIW4crwViu5O8oWMooe7pGzCzOsZnIZNVq1cPkjOhyGl0Y3Pyhj4aGbumfc5u/4ys0hpci0W18MF7s2+RgPaZVZS+cLlEs14pn5vyvho3Ya5vO9ZQH/TqT1qVFHUhjrnlmzKzxeJkm/jH7+NuMi7pVXjdbCFamS9blG2m1MznxrnMduFu8nUtCHQtNfk3G2lVrq70LV6RH1+g6L/2oa+0bITP7V5p5iwTa1LKGJNH1BIlqRomfH0Wi08ZvS65XnOTusvGa4oLUUh6LSmC71io+DcOcFtbarSxrvM3e87gb3CT6tsMNSUtLjy/5oVZrss/uIkpN9ySVV8te78fKzluZm4vKs7lsy5WsJ3zZuNdUn1u+5SsTH219Ri/jPLMd97XKo8XMtpHTsvLaC5Y+TE8W1F+XT3VpkOTzI5ns3VWe4RS3tMyBpAvIouguOTRs79L63KfkJMsjEXMkxiQbsqPoRubmcgkg9UX/VvdpqORMJl0Ltvgqb9y6uM19min5sGkyXlQ6IPz+QOafH+YWmzYldN3f4+fpsbJxqzHz05bC5Maak94ZJ5p+H08/zaYtrOhK9ieXlWuFkrFCPbMoyQONjx4t/GAyW96jNuNfZnFtVXnSWBk9etc8iu2VxVufW8fQJreyPiTdLH1mNkeSspjJpfVYYZ846r3LXJ1riy7znUJtbelhhpPb2ngUnx8L4VzrkPYkVocRaP4n3xvNn+lm438x5nFLsJAnWW2w+dTams04mRZlrq/r9oJlUziugQAEIOCRAILlES6mIQABtwQQLLc8sQYBCHgkgGB5hItpCEDALQEEyy1PrEEAAh4JIFge4WIaAhBwSwDBcssTaxCAgEcCCJZHuJiGAATcEkCw3PLEGgQg4JEAguURLqYhAAG3BBAstzyxBgEIeCSAYHmEi2kIQMAtAQTLLU+sQQACHgkgWB7hYhoCEHBLAMFyyxNrEICARwIIlke4mIYABNwSQLDc8sQaBCDgkQCC5REupiEAAbcEECy3PLEGAQh4JIBgeYSLaQhAwC0BBMstT6xBAAIeCSBYHuFiGgIQcEsAwXLLE2sQgIBHAgiWR7iYhgAE3BJAsNzyxBoEIOCRAILlES6mIQABtwQQLLc8sQYBCHgkgGB5hItpCEDALQEEyy1PrEEAAh4JIFge4WIaAhBwSwDBcssTaxCAgEcCCJZHuJiGAATcEkCw3PLEGgQg4JEAguURLqYhAAG3BBAstzyxBgEIeCSAYHmEi2kIQMAtAQTLLU+sQQACHgkgWB7hYhoCEHBLAMFyyxNrEICARwIIlke4mIYABNwSQLDc8sQaBCDgkQCC5REupiEAAbcEECy3PLEGAQh4JIBgeYSLaQhAwC0BBMstT6xBAAIeCSBYHuFiGgIQcEsAwXLLE2sQgIBHAgiWR7iYhgAE3BJAsNzyxBoEIOCRAILlES6mIQABtwQQLLc8sQYBCHgkgGB5hItpCEDALQEEyy1PrEEAAh4JIFge4WIaAhBwSwDBcssTaxCAgEcCCJZHuJiGAATcEkCw3PLEGgQg4JEAguURLqYhAAG3BBAstzyxBgEIeCSAYHmEi2kIQMAtAQTLLU+sQQACHgkgWB7hYhoCEHBLAMFyyxNrEICARwIIlke4mIYABNwSQLDc8sQaBCDgkQCC5REupiEAAbcEECy3PLEGAQh4JIBgeYSLaQhAwC0BBMstT6xBAAIeCSBYHuFiGgIQcEsAwXLLE2sQgIBHAgiWR7iYhgAE3BJAsNzyxBoEIOCRAILlES6mIQABtwQQLLc8sQYBCHgkgGB5hItpCEDALQEEyy1PrEEAAh4JIFge4WIaAhBwSwDBcssTaxCAgEcCCJZHuJiGAATcEkCw3PLEGgQg4JEAguURLqYhAAG3BBAstzyxBgEIeCSAYHmEi2kIQMAtgf8H5YbQHQuMfM4AAAAASUVORK5CYII=;" vertex="1" parent="1">
          <mxGeometry x="40" y="470" width="100" height="100" as="geometry" />
        </mxCell>
        <mxCell id="dxmCOhg-madHTMXgipft-2" value="" style="edgeStyle=orthogonalEdgeStyle;rounded=0;orthogonalLoop=1;jettySize=auto;html=1;fontSize=14;" edge="1" parent="1" source="HqMItKPm7-6f6RwEKrBQ-7">
          <mxGeometry relative="1" as="geometry">
            <mxPoint x="320" y="519" as="targetPoint" />
          </mxGeometry>
        </mxCell>
        <mxCell id="HqMItKPm7-6f6RwEKrBQ-7" value="" style="shape=image;verticalLabelPosition=bottom;labelBackgroundColor=default;verticalAlign=top;aspect=fixed;imageAspect=0;image=data:image/jpeg,/9j/4AAQSkZJRgABAQAAAQABAAD/2wCEAAkGBxMQEBUPEBARFhUWFxcQEBUQFxcVFxUXFxcXGBoVFRUYHSghGBolHRYZITEhKCotLi4vFx8zODMsNygvMCsBCgoKDg0OGxAQGi0iICU3LS0vLS8vLS8vLTU2NS8tLystLy0xLTAvKy0tLS03Ly0tLS0tLS8tLS8tLS0tLS0tLf/AABEIANYA7AMBIgACEQEDEQH/xAAcAAEAAgMBAQEAAAAAAAAAAAAABgcCBAUBAwj/xABGEAABAwIDAwYICwkAAgMAAAABAAIDBBEFEiEGMVETIkFhcZEHFzRScoGSwRQyNUJTc4KDobPSFiMzYrGywtHTVOEVJTb/xAAaAQEAAgMBAAAAAAAAAAAAAAAAAwQBAgUG/8QANREAAQMCAggDCAMAAwEAAAAAAQACAwQRITEFEkFRYXGRsRMzgRQVInKhwdHwMjThQmLxI//aAAwDAQACEQMRAD8AvFERERcLaDaenoQOWLi5wu1kYBcRx1IAHWTx4LpVVdFFblJY477uUe1t+y5VL7fVolxCVzH522Y1rmc5thGzRpGh1LvXdVaqcxM+HNX9H0gqJLPvq2vzyFr+qnfjPpPoqn2Yv+ieM+k+iqfZi/6KpM3Ue4pm6j3Fc726bh0Xb91Uu49VbfjPpPoqn2Yv+ieM+k+iqfZi/wCiqTN1HuKZuo9xT26bh0T3VS7j1Vt+M+k+iqfZi/6J4z6T6Kp9mL/oqkzdR7imbqPcU9um4dE91Uu49VbfjPpPoqn2Yv8AonjPpPoqn2Yv+iqTN1HuKZuo9xT26bh0T3VS7j1VuxeEqjJALKhoO9zmssOshrye4FS+nnbIxsjHBzXAOa5puCDqCCvzlm6j3FW34OcWibQNZLPEwte8Bsj2tIBN9zje1yVapKp8ji16oaQ0dHFGHxXztbPfjv2KcovnFIHAOaQQdQQbg9hX0XRXEREREREREREREREREREREREREREREReXXOx6v+D00kwFy0DKDuzOIaL9VyFV8u0dW4lxqJNfNOUeoDQKtPVMhIBF1epaCSoaXAgDLG+aj1fWPnldLI673OzOJ6+gcANwHUtR29bPJDzR3LAxDgO5cLw8bkr2BdsAwWvdLr7ckOAXhiHAJ4aXXzul1kYxwC8MY4BNRFjdLoWDgF4WDgmosr26XWGQcF4WDgsaqWK+t1mzctYtXlkLFsAQrQ8E9U4ieIuu1uV7R5pOYOtwvYdysZfnjB8RlgLjDK6PMAHZCRe26/ee9TXYjaqoNSynmkMjH3bz9S11iQQ7f0WseK6dLVtYGxG+668/pLRsj3vnaRvtjfAYq0kRF1F55ERERERERERERERERERERERERcHbjyCX7v8ANYqnKtjbjyCX7v8ANYqnK4ukPNHIdyvS6I/rn5j2C1CEawkgAEk6ADpK9IUg2QpA57pSPi2a3tN7nu/qoGi5supI/UaXLKh2TJF5n5T5rLEjtcV9anZBtv3crgf5wCPwtZam0WMPdI6Jji1jTlOU2LiN9zw6LLnUGLSwuDg9xHzmuJII9e7tWxLBhZQNbO4a2t6LTrqN8LzHILEdxHEHpC1iFONpYGzUomG9oEjT/K61x3G/qUJIWj26psp4JfEbfasCF4QsyFt4LRieojiO5zud6IBcR3ArXM2UrnBoJOxb2B7LSVIEjjycZ3Ei7nei3h1n8V33bBw20kmvxIaR3WX22uxd1NGyKHmueDYj5jW2Gg49HqUHZiUzXZxNLm33zu/G51U7jHGdUi5VFntEw1w7VGwLax7Z2Wk5xs+Mmwe0W14OHzSuIQrQwKuFfSuZMATrFJbcdLhw4b+8KtqmEse5h3hxYfskj3LSVgFi3IqxTTOfrMf/ACasYN5Ug2J+UKf0vc5R+HepDsV8oQel7nKGPzW8x3UlT5L/AJXdldyIi9MvBoiIiIiIiIiIiIiIiIiIiIiIiLg7ceQS/d/msVTlWvtx5BL9j81iqgri6Q84ch3K9Loj+ufmPYL4EKQ7HVABfEd5s9vXbQ+5cAhexSuY4PabEG4IVZrtU3XTkZrtLV0No8PdHK59jkeS4O6ATqQeBuudSUj5nBkYJJ7h1k9AUzwXFPhLXBzQC2wdwN77h0bltVtQ2CJ0mXQW0bYXube9S+GD8QOCrCpe34C3HJc/H3iGj5K+8Nib12tc9wUHIW9ieIPqH539GjWjc0dX+1pqJ7w44KzBGWNsc9qwIW/s/UiGqikduDrOPAOBbf1XutEhCFoHWIIUzmhwIO1TfbjCnytZNGC4sBDwNTlOtwOm3vUDDSTYC53ADU9ymOym0T8zKWQZgebG++o0vZ3Eab96mAhaDmDW342F+9WzE2b42my5rah9KPDe2+43/wAXD2UoTSUznzc0uJleD81oGgPXYX9arysl5SR8lvjOc+3pEn3qQbTbRvnzQMGSMEh3nPsengNNyjZCgme02a3IK3SxPBdJJm76JGu/sV8oQel7nLgsXe2K+UIPS9zlHF5reY7qWo8l/wAruyu5ERemXg0RERERERERERERERERERERERFwduPIJvu/zWKpyrX248gl+7/NYqoK42kPOHIdyvS6H/rn5j2avkV4QsivCqa6y7+ybrcp9n/JdDH33pnj0f7guTs662f7PvW5jL7wOHZ/UKZp+Dqqbx/9r8QoqQsVmVt0eEzTfw4nEecea3vO9VwCcArpcGi5NloELEqX0WxhOs0tv5Yh/kf9LvUWBU8OrImk+c/nHvO71KdtM854KrJXxNyxUL2XoJXVMUojfka67nEWFrHpO/1KxmoudW41BB/ElbfzW853cFbjYIm5rnTSuqH4D0CrKt/iP9I/3FfAr71Dsz3OG4uc4dhJK+JXLOa9AMgjV3NivlCD0vc5cMLubFfKEHpe5y2h81vMd1FUeS/5XdldyIi9OvBoiIiIiIiIiIiIiIiIiIiIiIiLg7ceQS/d/msVTlWvtx5BL9j81iqgri6Q84ch3K9Loj+ufmPYLBCvSvCqZXWXY2cppJC8RsLvi33ADfvJUjfs057CJZAAbXEep3+cf9LU8Hm6ftj/AM1J8TqmwxOkebNFr2BO8gbh2q9DEwx6zlx6qokbOWN4c9i5VFgcEOrYgT5z+ce87vUukonW7Y9EMX2pD/iP9rgVuMzzaPldbzW81vcN/rWDURtwb9Fu2jmkN3m3PNTutxmCH+JK2/mt5zu4LgVu2fRDF9qU/wCI/wBqJWWJVd9U85YK5HQRt/lj+7lv1+NTzaPldbzWc1vcN/rXNssysSq5JcblXGtDRZossV4VkvFrdbrALubFfKEHpe5y4q7WxXyhB6XucpIfMbzHdRVHkv8Ald2V3IiL068GiIiIiIiIiIiIiIiIiIiIiIiIuDtx5BL93+axVOVbG3HkEv3f5rFU5XF0h5w5DuV6XRH9c/MewXhWKyK6uzWE/CprOvkaM0lung2/Rf3FU2tLjYLpve1jS52QXb8HzTaY2NjkAPQbZr2K7G1rSaOUAE/FOmu57Vr4xtBHR2gjjDnADmt5rWDouePUtPDds2veGTRhgJsHtNwPSBGg610A6NjfCLsclxyyaST2kMwwNr7rfuXK6gi8KmG2uCNjHwqIAAm0rRuudzxwudD2hQ8qhJGY3apXYgmbKwPasV4vSvCo1OsSvCsysFgrK8Xi9RYWViu1sV8oQel7nLildrYr5Qg9L3OUkPmN5juoqjyX/K7sruREXp14NERERERERERERERERERERERERcHbjyCX7v8ANYqnKtjbjyCX7v8ANYqnK42kPOHIdyvS6I/rn5j2C8KmXg+IyzDpuwnssbfjdQ0ro4DihpZhJYlpGWQDpHEdYVaF4Y8Eq9UxmSItbmvltC1wqpg/fyjj6ibt/Cy5xVk12F09e0StfrawfGRe3muB9+q+OH7KQQO5V7y/Lzhns1jbdJHT61K6keXYZHaqzNIxtYNYG4wtZZYyMuGES7+Sja6/n80d91W5Up2wx9s5EERvG05nO6HuG638o/FRcrSpeHP+HIYKahjcyK7hYk3ssViV6V4VVV9eFYrIrFYWV4iIsLKxK7WxXyhB6XucuKV2tivlCD0vc5SweY3mO6iqPJf8ruyu5ERenXg0RERERERERERERERERERERERFwdtwTQTWHmH1CRhKqcq8Zow5pa4AtILXA6gg6EEcFGZdhaVxJvM0ea1wIHZmaT+K51XSvleHMtlbv+V2NHV8cEZZJfO9+n44qsysVZv7BU3n1HtM/Qn7A03n1HtM/QqvsE3Dquj72pt56KtYpnMN2Oc08WEtPeF7U1kkmkksjup7nOHcSrI/YCm8+f2mfoXni+pfPn9pn6E9gmyw6p71pb3x6f6qwKxKtHxfUvnz+0z9C88XtL58/tM/Qse75uHVZ970289P9VXLEq0/F7S+fUe0z9C88XlL59R7TP0J7vm4dVt73pd56KrSsFani7pfpKj2mfoTxdUnn1HtM/QsHR83Dqnvil3noqqXitbxc0nn1HtR/oTxdUvn1HtR/oT3dNw6rPvil3noqnK7ew4/+wg9I/2lTzxcUnn1HtR/oXRwLZSno3GSNry+1g6QgkA7w0AADttdbxUErXgm1hioqjS9O6JzW3JIIy34KQoiLtLy6IiIiIiIiIiIiIiIiIiIiIiIiIiIiIiIiIiIiIiIiIiIiIiIiIiIiIiIiIiIiIiIiIiIiIiIiIiIiIiIiIiIiIi0sSxCOnjM0z8rAQCbE6k2GjQSdSsEgC5WWtLiABclbqLmYRjUFUHGnlz5LB+jm2ve2jgOB7l00Dg4XGIWXscw6rhY7iiIiytURERERERERERERERERFoYpiUVNHykz8jbht8rnam9hZoJ6CsEgC5WWtc4hrRcnYFvoo5+3FB/5I9iT9C6WHYxBUX5GZj7akNPOA4lp1HctGyxvNmuB5EKWSmmjF3sIHEELooiKRQoiIiIiIiIiIiIiIiIiIiIq68JtaZJIKCPVziJHDiXHIwfie8KwnuABJNgNST0KsNmZBW4q+reQGNLpG5jbpyRt16QNe1qqVhu1sY/5G3pmV09GNDXOqHZMBPqcAPXFNmr4dirqVx5jzyVz05rGN3bqG/aKtJVr4T4AHw1kTxcfu3FpBILTnYf7u4KdYNXiop45x89ocQOh25zfUQR6lim+B74t2I5H9+qzpAeLFHUjaNU8x+R9AtE7W0Q0+FM4bnf6Xv7XUX/AJTO53+lq12y+HxMfNJA0NAL3kuf+rXsUI2cwNuIVbpGxcnTMIJaCTcD4seYkkuO866a7rhavmnY4Ns0k7BfqpYaWikY6S7w1uZOr0GdyrLrMaghYySWVrWyDNGTfnCwOlhwIW7TzNkY2Rhu1wD2kdIcLg9xUC8LDAI6YAAAOeABoALM0AUx2f8AI6f6mL8sKZkpMrmbBb6qnLTNZTMmBN3E4crrx+N07Zvgxmbytw3Jre5AIG624gr64likVM0OnkDA45Wk31NibaDgFXuI/wD6EfWRflMXZ8K/ksX13+D1H7S7Ukdb+JI6Kx7AzxYWXNngE5bdy71ZtJSwsZJJO0CQZ47Bzi5p+dlaCbddl0DUsEfKlzQzLnzOOUBpF7kncFBtldkY6imbPWZnue0CNuYgNjaMrdx1JAvw1Gl7rR2/qyZ4cPbJkiY2MPLjpmdzQ5/ENbY+sp7Q9rPEcBY2sNvqgoYZJhBG43F9Y2FgBu2n1tfNS79tKHNl+Et4XyyZfay2t1ruU87ZGh7HNc1wu1zSCCOII3qF/BMH5LkOUg3W5TMOUv52fjfW27qstLwWVzs81ITdoHKttuFnZTl6jdp9XWjJ3h7Wvsb7tnD/AFYloojC6SIPGrmHAYg7rAYjttVjqG+FLyIfWs/tepkob4UvIh9az+16kqvJfyKr6P8A7UfNamx2y9JPRRTTQZnuzZnZntvZ72jRrgBoAoztLRf/ABdex1O53xWzMBOoBeQWk9IOUjsNtVt4LtTVUtGxrKUGJt8sr2yZTme4nnDm6Ekb+hbezeFuxOf4fUyxuDXD903eMvxWlvzWaX6b69ZXOsyRjI4x8eGNrW48V3QZoJZJZ3Xi+IWve9zgLbPpnjws1R+q2voo3ZHVLbjQ5A94H2mAhcnwmYq6GnZCwkGYuDyN+RoF2+suaOy46VobPUuGR07eXkp3yOaHSmQ3ylwvlaPm23XGuivSTu8QsZYWzJ7LkU9GzwBNKHG5sA3PDMnO23Ypzh+IRVDOUhka9u67TuPAjeD1FfCvxungkEU0zWPcA5rTe5BJAOg4gqvdnKhlNi3I08meCTmAg3BBGZuvSWu5t9+/isvCjf4dFl+NyTMvbnkt+KjNWfBL7Yg2O70U7dGMNSIi46rm6w2HkeI2qc4ltLSU7+TlqGh/S0BzyPSDAcvrW3hmKw1LS6CRrwNDbQj0mnUesLi0exlMGWmZysjtZJXudmc46uIsebr6+N1D6CI4djDYGOJY5zYtelklsodxsXDXi1bvmljcC8CxNuI/KijpaadjmxOdrtBONrOtuGY9eeV7WrJIGgucQABckmwA4kncuDLtnQsdlNS3ta17h7TWkFRfwlV8kk8VDGdCGvcL2DnPcQ0O6ha/2uoKRUOxFHHEGPiEjrc57y65PSRrzR2LJlkfI5kYHw5k/wCLRtNTxwtlqC74sg22W83+mH3t28NxKGobngla8bjlOoPBw3g9q+lXVsiYZJXtY0b3PIA7NelVe+E4VirWxOPJuLNCd8UhsWu42INvRC3PCqZOVg+NyWU2tuz353VfLlt61oastic4txabEfdSjRjXVDGNf8LxcHby5/vBSoba0N8vwj15JLd+Wy7rJmuAcCCCA5p4g7iorhNBhdVGI4Y4XafFOkw4k3Of17lKoIQxjWDc0Bo7ALKxEXnFxBHC6p1TYW4RteDtDrfYD1Cj23+JchRPAPOl/cN7HDnH2QR2kKKbL7DMqqdtRLI9hcXZGsDfig2BNx0kH1WU1x/ZqKtLDM6UZAQ0MLQOda5N2nXQLqUVM2KNkLBzWNDG34NFhdROp/El1pAC0Cw+6sx13s9MGQkh5NyfsPooJiPg6jZDI6OaVz2tc9jSG2cQL5dB07l9fBXieaOSlJ1aeVZ6LtCB1A2P21P1GKTY2CGR0kckzS5r2ENc0ANkBBA5txa4I1+aFj2bw5WviGGNwthX+NA+OocSTYtO4/vcqL7ZY0a6obQQPYIw7949xAaXDeS7zG69pvv0Uzwc0tLC2COeGzd5L2Xc473O13n/ANLk+Lmk86o9pn6E8XNJ59R7TP0KNjZ2uLy0EnjkNwwU00tG+NsLXuDW/wDXM7zjn+jYtLwqR5oIJRq0PcLjUc5txr9krubMYvA6ihPKxjk42RyZnBuUsaAc19w0v2LpVGFxSU/waRuaPK1ljv5oFjcbjpe4Ubi8HNKHZi+ci97ZmC/USGg27LFSGOVsxkYAbgZmygZNTyUwhlcW6pJBAvcfn1Uair21GONlZqwyta08Q1oZfsOW/rUj8K3ksX1w/seuozZGnFS2qbygc3Lla0tDBkaGgAZb2sB0rc2gwOOtY2OZ0gDXZxyZAN7Ea3B4rQU0nhSNNruJUrq6A1EL231WAA78O+wXTZTyGn+qZ/RQLwhUzYsQZPIwujeGOeNwIYQ17AeOUD2grJw6kbDEyFhJaxoYC7U2HEjpXzxbCoqqPk5mBwvcdBaeLSNQVNNAZIg3aLfRVqWsbDUmS12m999jj1y/cVwaPAMLmYJY44nNte4kfp1EZ9D1FbuAYbRMc+SjDLj93I6N7njWzi25JHQNy5Pi2pb/AMWot2sv35FIsFwaKjjMcAIBOZxcS4uNgLnhoBusFrEx2sC5jRxGP2W1TOwsIbM919huBbjjj0XUUN8KXkQ+tZ/a9TJcvHcHjrIhDKXhocH/ALsgG4BHSDpqpp2F8bmjMhVaSVsU7HuyBXN2CYHYZC0gEESAg6ggyv0IUPxBj8HxASR35F+obxY486PtB3fZ4lWNhGGspYGwRlxazNYvIJ5zi43IA6XFfHHMEirYxHNmsHZ2uYQHA7tCQdCCoH07nRNA/k21udvurcNcxlTI52MbybjgTcHmP3eoj4ToxNT09VGc0YLucN1pWtLXdQ5lu0hffZrC8NqoGO5OPlA0NlaXvDg4CxOXNuJ1BUlwzAo4ac0t3yRG/NmyusHb2iwGl9e0lcKbwc0rjdr52DzQ5pA7C5pPeStHQP8AE8TVBuBcHYeBU0dZF4PgeI5mqTquF8QcbEAj92rdw/B8OZUNbAyPlmAyDI97i0NIFzziBq4aHiop4UZMtdC4dETXD1SSFTTAdl6eicXxcoXkFhfI65ykgkWADRqB0dCh/hL+UIfq4/zJFrUtLac3AabjLmpdHyB9bcPc8Bpxdnx32Hqp3R45BLEJmzRhtrnO4NLeIeCeaQq8p5fh+NNljBMbXteDwbFl5x4AuaPbClOI7A0sshkBlZmOZzYy3Lc77BzTl7N3UuvgeAQ0bS2FpubZ3vN3utuuegdQAClfHLK4B4AAN8Dn+FWinpqdjnRFxc4WAI/jfjtPLooP4RYnw1sNW1txZpHDPE4nKT0aZfx4Kd0OOQTR8syaPLa5zOaCzqeCeaQtnEKCOeMxTMD2HeD/AFBGoPWFFX+DalJ0lqAOF2G3UCWf1unhyxyOdGAQ7YTaxWvj088DI5iWlmAIFwR+f3FR7F5xiOLRth5zG5GZhuLGOLnv7NXW46cVYdfJTyO+CzmJznASCOW2ouQC2/Tdp3ahfPBNn4KNpELNT8d7zme7tPQOoWC1doNlYK14klMgc1uQGMgXaCTYhwI3uKzHFIxrnWBc43I2ckmqIJnsZctYwWBzN95HTAWUL23wCCiDJqaQscX2Eee5aACeUYb5hYgDefjDd0z3ZqpfLRwySfHcwFx87oDvWAD61xaLwe0rHBzjLJbokLQ09oa0E99lL42AAAAADQAaAepKaFzJHPsGg7Ab+v8A4ldVMlhZEHF5BPxEW9Mz1WaIitrmIiIiIiIiIiIiIiIiIiIiIiIiIiIiIiIiIiIiIoltPsm6sqGTiZrAxrWZS3Nez3G+8ed+CIo5I2yDVcMFLBPJC/WjNj6HupaiIpFEiIiIiIiIiIiIv//Z;" vertex="1" parent="1">
          <mxGeometry x="190" y="483" width="80" height="72.54" as="geometry" />
        </mxCell>
        <mxCell id="HqMItKPm7-6f6RwEKrBQ-8" value="" style="shape=flexArrow;endArrow=classic;startArrow=classic;html=1;rounded=0;fontSize=14;fillColor=#dae8fc;strokeColor=#6c8ebf;" edge="1" parent="1">
          <mxGeometry width="100" height="100" relative="1" as="geometry">
            <mxPoint x="40" y="710" as="sourcePoint" />
            <mxPoint x="720" y="710" as="targetPoint" />
          </mxGeometry>
        </mxCell>
        <mxCell id="HqMItKPm7-6f6RwEKrBQ-9" value="CI" style="rounded=0;whiteSpace=wrap;html=1;fontSize=14;fillColor=#dae8fc;strokeColor=#6c8ebf;" vertex="1" parent="1">
          <mxGeometry x="364" y="675" width="50" height="30" as="geometry" />
        </mxCell>
        <mxCell id="HqMItKPm7-6f6RwEKrBQ-12" value="" style="shape=flexArrow;endArrow=classic;startArrow=classic;html=1;rounded=0;fontSize=14;fillColor=#ffe6cc;strokeColor=#d79b00;" edge="1" parent="1">
          <mxGeometry width="100" height="100" relative="1" as="geometry">
            <mxPoint x="720" y="710" as="sourcePoint" />
            <mxPoint x="1187" y="710" as="targetPoint" />
          </mxGeometry>
        </mxCell>
        <mxCell id="HqMItKPm7-6f6RwEKrBQ-13" value="CD" style="rounded=0;whiteSpace=wrap;html=1;fontSize=14;fillColor=#ffe6cc;strokeColor=#d79b00;" vertex="1" parent="1">
          <mxGeometry x="910" y="675" width="50" height="30" as="geometry" />
        </mxCell>
        <mxCell id="dxmCOhg-madHTMXgipft-3" value="" style="shape=image;verticalLabelPosition=bottom;labelBackgroundColor=default;verticalAlign=top;aspect=fixed;imageAspect=0;image=data:image/png,iVBORw0KGgoAAAANSUhEUgAAAOEAAADgCAMAAADCMfHtAAAArlBMVEX///8lYOAPRr2RsPIAAABMgPAXWt9ymvKOrvIRWN+XtPPw9PvCwsIAQLzi6fvu7u6CnusAMLigsu4vLy8AOrovZuDPz893d3fQ3PlpaWnl5eWntuLY2Ni4uLhShO8kUcA+Pj4PDw8aUs2fn5+WlpY3buayx/YAU95hYWGNjY1ij/FfhOaBgYEjIyOFpu42NjZpj+g/cuS7zPVRUVFXdctDZsaWptw0XcMAHLV+k9UV5ZoRAAAKt0lEQVR4nO3de2OqOBYAcHxRX0W7tlgtWF+tj2r11pnZ3e//xTYkBMIj5gABQpfzx/RWSeDHOSTRy2U0rY466vh/DuOzO04f3c9B2YD7YYwbu56eJXa9f5WNuBfjnd7IHLtr2QxuGC+97D6H+Fm2hBOGLiGBOHplU+JjIA3Y2L2WjYmNL2nAhpqDzedOGlBN4UDOIKOwUGKNqimUWaNKCqXWqJJCqTWqolBujSooHEgGqieUXKPqCWXXqHJC6TWqnFB6jaomlF+jiglzqFHFhDnUqFrCBDWKv2eqnBC4HtX1l87XFcXiowFRKiQE1Wjv4/rd7/dbrRb6b3e8aAgbqSOE1Kj+59vB+dFvXUVGZYSAGtVfxkEfNnYX91sqIxTXqN6J8IjxoRJCcY32vqIJdInfFRCKa1Q/8oAouuoLF6Ia1bkZxPHNb6+GUFyjH3eB6FrkEpUQAmr0+y4QETs8ohJC4TgqqFF8KaosBMz1Ih9KIu80KSAEzPXiFPKTqIAQMNeLrkJyJaoqBNSoYCB1gzOcli6ErEchRcotU5nCQZoAfGbSHyDAVv8lX+E/70+pAvChEHQZIuGfPIVG87mZKsQ+JAQBW/34pZ8c4eD5MT8gZDbEwq8cc/hXSuBaqvCYXw4HT+mAwBRCqzTHHL7leBE24CNN/JRfphBYow19DBN+KCcEAhv6FTTjt+JblyiEAhuNDkg4znFNk0oIrVEnQEXKWR2VJ0wABC3b+pzGpQkTAGEfLnjf1JQlTFKjoNGUs+4uT5gI2Gi8iJLYv+b6PU1yYUKg+CMi/2vvcoTJahQfZ8xfyrApjJ/tyxMmBqK4t3Tjf1takjAN8B6R88mwPGHyGiXBLdQ7GSxHmBLIGW7645e734SUIEwLjP1LYOFfAZcgTFujxPjx0PKR/f54Ibwdo3hhFqBjbHSu4+9uq/s9vi4gt5sULswIxEjHBb5lqGhhphpNFUULocfFW0crLwQDF/FfYCsvhNboy6LTkUXs/RQpTACURtwZBQoTAaURJQChQmCNUqAcYu+7QGFSoBSilCIFCpMDJRDlpBAmhNVoENjJOmnoH1KAMGEaYNYs6g1JD1WACFMCO4sMq5ueLCBECKrRGGCH/xWTMCQ+TwEgLB6oS1nMgIXFA3dfMp9rIhRCalQqUO/JfRyGUFg0UG4CAcKCgbr855m83b8XA1CjMoG7RQ5PFvrrbhILBeaQQCGxUOCuI2WlHRN/c4niGpUH1Hc53kzKJRYI3P3JK4H3iMUBc00gjn/H3b4nrFFpwF6+CeQSiwLqu1buPk0bvEeJBQF7H/knkEMsBriT811FKmIRwKISGE+8N9JIAhaXQEJsPkKTKAfYeyn6iXNgohzgblywzyHCLkUpwOITiMMIL27i/mGTFODuoQxfhPj4/hp9KICcEi3vmY8G+4n42Yg+qlNOiZb5CF0mi8/OXBUiSgGuH0t9SLCXxScyGQeIUoCo/Mt9DPIrIT7RS4UhygCum6ULCfHJ/9rZoEIZQDKElf0o65+n5tMb87tLlABcN9UQaj//eQv8jokSgN40VLpQC6/4ETE7cN1USBgJIzuQXUooKBxcMwLXTbWFg4eHYyZgcLmrnhABI8QkwHVTcSEGhohJgM1wqCZ0gQFiAmA4geoJPSBDTACM+lQTMkCPCAfGJFA1ofHwECHCgbE+1YTXCBF8r1N8AlUTasYxRLz/71zECVROGCIefwyYkJvAgoXG548Xn5yvh1ji8RP9Dnla6T1gocLX764fvBsFfOIRbyLO4l1fwcKu/0+tuELt9cgCxVkUABUUusSjt8FdosinpBATj8z7Bv8xX2KgkkLt53gMvM3LIsCnqFD7Cb0bTwQBFRVGIo4I8lVGGJ00YAmskPDtMVUCqyN0btxMk8DKCMmdqSkSWBUhvfV2nTiBFREy9xavE/KqIRTcPF19YUag+sKsQPWFxmPKx0lWRqgZaR8JWhkhyuJvF0bvnvp1wmxZrIQwE7EawizEiggzEKsiTE8sT2hwQy6xLGGryw3eHecpJ43ShPzo8tqny2KVhMFbbn+lMFUWqyVMcy1WTJgii1UTJs9i5YSJie/F4HDIESYkPv+3EBsJScJkxKcib8WQJUwy3Dy9CXuTGNKEaOoHGR+fiwVqr87/2BUQgK6Md0j8/Y9adwvVUUcdddRRRx111FFHHXXUUUcdddRRRx111FFHHXXUkSJG2w0KuX2aGxq26b5kTU/TA6w1arYdoZ8H1GQu4Wg2bSdk9OTHoc3EFr80RH86w1o7jRzhGf00hVuL48IchqzYssL20nnJEU5grVeucCJHOCdHscreExNBYfukESFwJ1S4kiOkBWVl78oPR3ieo7DINYBeGji/wlpTIbzF3XCK/eKe5yRh2SP6B9schd7c+hed3Y7NxMAyA0fP9kKFoZgPh/PAr3bgd9SDHZcm0zkW06+gOVtdaDdL9GOI36FXhfOKNp+4h30iW96CfTNCPG4M/etwiC963Oxs0+3dQrqZASHd46y9altzPF5c6Lkyl+wwhk7kyr0gIqfmhNPnn2eYcO42YLYOzDcC4WbvNpqSfa68XrZxQmdrm24xZE+JsxtMmgUOOhDkUGfe3iyQ8EaajdiNh/HCUYzQFznnZcD2YnOEftD+aTidYv9yhvO6DwKHpM2QNtVGNo4t7SxeiOIyISfGeddaeu0jQrzNPChEZWOaB7qLKe5loFk394VY4W0+muMNLPeszUbaaOOeJTpzDqNJpMmjp4/G2e2LJzx46bG87Zn2jnB1QHHC6TprISHe1Hb/1G7TS2RCXogTrrwdmqRGbxrtY+WvEbT9cjkJDgltphMmvcs2hcUL9173ZEd4YTQNCpmwQ8KVfxpPeKxbal6Hs3jhlj0FF++c4G3nmLE6xc2dNt2dHUjvzE0+V2h7rMsMx83HRoX46FjhjGx1wOcq1MuFM9KwQqfTPW4xJauCm7unyyE8Xzjv7C3TNP3acfdM58d4ITlbp2CmmFUnI1ydyKQVnC2883sLrmHbzoUYJ/SPwQ4OcPgVZkzfBy7D0KY3f8deycYLrTghM9RsKdjfXa5CdvoILA03oU3x8eD54kI38YV0vPKFmzZvxe4J/WCF7hXrnKEZ7iX4sUok1IKn0w2TzrLszLwMCZ33Rr6VboKrl45jjNBuR2YfmNB9i+xy2A5cwhAhM9Lg8BZsw0nwkHD1bkwSSzdzkwAQT1a4ySkq9NDkIJhECITkNOMKsrwlgdvLCSB0SnKJXzBxOjfe76GTvmWzjfc3J8PocooHqr3pvjwb2qQCgkIyV2/nI2tPGoOFqMchbjyhvRxoLxZAiE/KcjgauUMGvrAOqAleEzAXzrnNTGI4oQdv3MVhs4NRdKTRBitmY7b8BUK/mUWPg4ZzeEJhcAAZhdZ1fgGafnnQ1quI0OvMnrr7u/hCbeRfyZGVd+jjLr3+8Hw4ZXaATpS/U3z+6WHSsc0XeksnbyHurrwv/kEzF6g9nU5noV9H26kfM7yxuV+1z3tL26AXHNkB/fQLckiObhb8qOr0FfrAac3IS44QTfPnQKNgL/hA0M+Tu0e6Z/IKEYwOOPMTemJtcq7P0U9PEmJkJfkkToSoVehQkvWCW8wtto8B6iEPXuKgwt8btbD68fuF5vkymYo3q6OOOqof/wMm4WPFdeRt4QAAAABJRU5ErkJggg==;" vertex="1" parent="1">
          <mxGeometry x="390" y="450" width="80.35" height="80" as="geometry" />
        </mxCell>
        <mxCell id="dxmCOhg-madHTMXgipft-4" value="&lt;ul&gt;&lt;li&gt;app.py&lt;/li&gt;&lt;li&gt;Dockerfile&lt;/li&gt;&lt;li&gt;manifest.yaml&lt;/li&gt;&lt;/ul&gt;" style="rounded=0;whiteSpace=wrap;html=1;fontSize=14;align=left;" vertex="1" parent="1">
          <mxGeometry x="20" y="550" width="150" height="60" as="geometry" />
        </mxCell>
        <mxCell id="dxmCOhg-madHTMXgipft-6" value="" style="shape=image;verticalLabelPosition=bottom;labelBackgroundColor=default;verticalAlign=top;aspect=fixed;imageAspect=0;image=data:image/png,iVBORw0KGgoAAAANSUhEUgAAAQ0AAAC8CAMAAABVLQteAAAB11BMVEX///9ZtNmztLWVlZXCw8SqqqoAAACWlpays7SmpqavsLCx2+x4eHhQsdi3uLmSkpLj4+P19fa9vr/V7PWfn5///+L/+vT7+/tAAAAdAADp6el+fn7///nq///gyqb//9WHh4f//vLZrYQ9dJq4kWzLqIGcyPjy+fza2toAR3Xo9v8AAA/Nzc1zPAC77fIAABdULQAWOmSIwtGxiEuGYjCYzuaFxuJLDQD/79kAHmfbp3Ruo9ilvOAAADPg//9tvN0AACNeGQAAACaz2/+u2OvX7PUSAAAvAAAAAEQiAABOAADo4KyTzOV6wd/w5tzLvbnbybFlWU9BT1WWr8r/3LIAPnVXaH2EcFf43cVvg6FahK0ANlmyvMlxVT4ADEKvm44AA1gAJk5Leq92q9I4CwDdw46se1lQGwBYQSQ1TGO5iVzGs6IeMERFMSAPITd+ZVAaWpAxHwiZqbN/YT0wTXOqpn2AUhSZv7ZkXmlLNBFyTip1dYJTYmoADzmgaRF1h3VMbnYAOH55jLAZHQBxTR1eJwAAJ2EAK1kAHSShcD56OACYaSu1ll2Ns9xxaWH/7Mt9kaBCgr6LTACYe0a0pJXG1udopLze0L8AAGGFVy25mn0yLSgoKTSAb3nfAAASHklEQVR4nO2d+WMTZRrHwyRztn0nmUwbSENNgJoYUluFYtzVbYGmHNKCcioVxFXBVllAVlcOd9d18eBcFbvI/rH7Pu871zuZTGbSYyZtvj9Amsz1fvJc7zGZRKKnnnrqqaeeulHlbLaPKJutRn0tkaqcnZnaMuDU1LG+zYmk2jeHSWxxCb8zNdnIRX1x66tcdt+WJhI2kam+ctRXuH7KZeearYIFsmVys3hMdsofhcFjZjP4S3VfABaUR1/U17rmmmnjIwyPfRs7fJSDGoZpHtmor3gNlW2dSFrxmIz6mtdM2ZAoNjSOvrCGQXG4g0eOKJomrJ46g4FxzFlNx6X8sbkp/N7U1NxkX7aLkXQKA6yDHKAxMwVdGetdrLmZLq3Rsh3DwA0/ligDCo9PBqa6MetUO2cBjZ7z6dV0IY8gxXjnrLqMx+QawgAek91UtK4kaATDsaV7wmluqqMWhiviu6aLN9OBaQzMNbzTSMsduqRo7SCfGN01vxGy5n2ORd3QQAodQge2zJhRsToTPBt1hXWUQ7LAtWfDuXufT7Hh2nEmskYGVsioMTDVFA8bkwF5xD+U5sKxGJjxKh3KfcEi6kDDY+c4KVStMbCvZd3QOBaIR8zLsLkQWcE58JfLu48UxEBinljKwVMCM2eQRrJcy7gOlsseaxdBBmLdZwnuKE4nydQkjldVUam4R3TaptypOPtKwIzC9ssrSOI4PplMqqqecntMOeubcmOdZgN1UQa29DlsIK8pGAahATzUZo9p+DpMfI0jFygvOp0kVyMsCA1R4UUVgEgV13F9ImqMjaPRnsbAlKNIyFUkysKgwSFFJkCSmttjGpOteKxrC8Oo7dgwO9uKnYTjGBogRSdAdLfHtDCQ+KaVNkF0gJktwZlE4mwaqkmD4yQeAyE5hgXimXKNMfYYyr//yo5oppFtGC4aYCCyCBFE1/Js0q16DIOsbxuD65gvDWe5lU8Z0VNiaUg4dphAdAKEd3lMU8qNbW/Fb06e6XGaToL4IktD7i/qEjKB8HrSK8dUmYga26wy5+cnNo20pJgs+vvdNLAACH0XSbKOcTTnGEdEjWvgyAWiYToJUpK45cMsDX64v58CUSyPkSGkNuUYxzBITAuwfQFoZBBlIYmk4S4aSlItUiDDRVlxhBCPHJPro8vrBuJKI0DcIDSQpFMWxaSbRlK0gagWECPpunJMjhTtcQ2jfhmWoSEXiTtgAmITjSQAkUULiBlDjKTr6sdAyo1n/VUNEjeAhkJYyAinDE8aSVVByAbCcwyQpMLmmL440qj6VxsuGsM64pDYmgaEFsSbQJK8mXVx0vXKMTFTeV+7BcMOGvywmpS5djQ4JqiKDiBeOSZOar/+j7EN3OBgNFRnUBVlw2Usj4nl6qeyv5OsiIYRVIumhVAgkmLmmGhb7qFqoKXkndPAnyCJN4AULSA06TaPlUWrQDBWSAOCKt5m2ChUJQIEGUmXi5HHVINNFK6YBvRrrBhi9e2ox8hNo8sRKegUyirQIBuJNhDqMYjXdV6W3UNDkSgXdI3BKtEgQZVPFp19O5RCCo+BoHTUHhMgm6w2jWRSwkGVAiF9uxSWhoHIMh+txwRfM7yqNMAgJCOo4qpWSxEgHABB0eWYEMuaVpsGBAwVYkgxqeI6lfCgHsNrEXlMYD9ZCxqcjGNqUqXDpzqvWUCwx9Qi8JgwqzXWhAYch+dx7w56LrhwNzwGQqqy7jzCrAxdIxoYBg8WQYEkDZdBmEd6nWGEW8izJjR0ntIAArgwTeKj8BHRCHUT31rQwOHTpoERyBBDxGhoBF/Is2a2IbM0sGRdj4ZGuMWQa0GD+AlLwwwj604j3Or6oDTU4DR43ouGEgmNcI4SkAb00mHkMxAN5EkjGtsIeRtKQBoUghyEhuZNIxrbCLuG2pOG2WwyAsosYWhLA6XiRMNv8iQYDU5WnO0WeamJBk6ZLWigVJxohL1FyYuG2wpEXVZcRBQegHjQ0FrRiCRuhL31wkVDddEwG6qKuu62EYVvoiFpqVjZRsiU4qKh6kyQkBS+CN0Mg4gKRmIt8mlGJnEo1ZJGNLaxEhoiz3z3Si2TyKVTis4g0WVeYokoOi1HJORuftS2UV0BDediQEnh7NGqTEVTaGfUUJOR8FCOSFrcaKzENpwskHusO5OvIbKcxwwkmAivOHeRtSbX2Ag0JEnznhjKYSR0Ks2KrZiIuSNqDhTdHDcsFr4DmLl8JcWT6WdKhLqNDSOlKbGxjZXUG9TgA80oYySarjJGYtGAeQMpHjRWUosCC9fMR97fSmqSGVxV3I3HgVVzEImBp6ygnyIpEjvpkakgHlcgqYofk1wlJeEULBpt5hUHkehto+M+rDuNZGpIgcIKvntd1ir51tND2G9qmiLLFhFOcxiJpERHo9PxDa2ZheSozMlUAKqlMy2ZZHB0RTYSRbKNBKbbumrsK8E4Q6bGKUzRbSPx9xycgjUyj+R2G02Lhka4323yus87U5PMsoqh4WDCa7XWaTiTrkG7ZdNtkCOEdMeYuS3rrgyDhig6SnInkqIupdIt03Eed3Bkiwh1myjmU0L9uISbBsPCGAmEOVQdSlAvJqpfgMWhhLORIC4CGqF+eISlkU9J7CAGcycXhZJ0QcHRFbcUkHi7Ti5dS0kWknWnEco4nDTSmskCmQbCu8dFJYOJDcWoNHBzFa1VzslBKCH5Zv1phDEOO6ekNctHeHVYaUHDshOAIgIUq8ogSGBNTwszgRTM8etOI0xasesNmwUsVjIQyOZYMELNY14ISTAaqPAuYRvgUthMvC6thTutqYIvZ7FoGKsdOZ2uZGNp8EUyCohQExS6uktDSFHcSGQe1SpxWCJZDlyCWTTI8L8imnfrSCwNeiMX/kDVWSrOHgmG4jIUjETHAdbbTNZPgQcELRocTBfQReMirjFYGnI/K0qF51DKQ5iJpLBMeGIm0TEJ2nlz0EA6uQdHgrt1XLah4FqrWBweHmaZDBchaiJN82KiIcnpPZBzJP/u8Fri6IDGsAoUvGjg/yB/8DCrpAIX4/4l0sMVRWIomgcVd0SR9fXPKSFwOD3FaLo3DVJo0XuXkEIK82JRJIhojQq9F6CieFGxI8r61xsWjjB3ZASmwdH5SMxBN5opi6JdqKsUi8xLzUyi6KdYCnJPRsc0YKmb0V6NxgUd6jFzYJBSIUPq9jhHpDSClGHODBuOBq7InTR4Y1hYQ4pOK3eHMBYpehqJartf+urcNmRvGvawMCfRXh7dNaJVcC71+btLxzRgqZs/DeND3H8FY4kHDfJTMqtPg/Rcg9BIGaviohkl9pLn05VWRIN247uTBvmB0AFvGT8aEpKG3NU0EuSZbF4yfuUrFA3eWB/bxTT8Fc42+M1JQ/ekgTY8DRTYNiRN69EwaUgo1QmNqO5P6UghbCO1GWhIAeOGtilo2LYh+tHQUh3S0DYgDZTq0bB/xSjVo2HT0DYLDSkADS7VMQ1lw9EQtY5owCSD+ckGoiF3QsOhDUVDdze/BQ2y2tq9UHKj0dCbmu9Nw2vqjcy8wTZdREP1oyE2N5+96UBphkBBcOZsmyzzUhwm7duK3K2j+9GQW9LQYCWk51wskmwOZBY2iuUbHYiuM+f1ljR0D9fwImAZhA0CW0Qqyhn6DmT/vr0nDXZYWGbXCrcwiDitaAmrjPnsAy8aIusa3iCci1nANVqtduoOGc/F4OChBywNnoyRK0or19DcBhHZQo1VVK5Cf+lekUWWBuddPzSDgFWSXRMr28p8CoLC0PBc0EQ9gwWR7q5Y2V7OJ2SYNHxDJU+XEqe73zU8VXGsNCc0NLdB2KFSlrsueYZWzeJBfr7aESF43hkruzN5hlbGvBNBp914ZiEoGITW1ckztIznqGAasqIwBtE99fUqKleDh6joqm7nDLSBkmdoYXfhdNEBIuoLilhppMukioj6QmKiTRUre+qpp5566qmnnnrqqaeeeuqpp7XU/Eofb5WuVCrp8I8oLRx/GmbrClGb9SrzqOq/QdvT7BdW9FziE2/PCljvnAy74ynhdAiEg4fgLML0GV+Ee4Q/hr0M90UJOzvfu7BLEM6gFDorvOG73bl3m96qv/ZeiBMNbj2/kEodf1+44Pf4z9Fx9pstXfT4kS0/7flg74XOnz07KlyiOw/5b7frvx2fgmpw60vECR4IH4bYq7711XBnObRzRPhzqF0cenzozUBPai2Mvd7pKQyZNM599Mr24Ht9LISjsUN4ODjxEjnBJ8QzhfHJxOBleur6BJx6ZLqvflYQXsRvLF0RhE8X7L0XWZCFpc8F4bOTZXrg7In34S/8+sQRcmBsxfO/4i2uki1eOAIeuuvwdjjoZ0bYWf4LfAyvhsbeSyxdF665aNQv34SLHbp4XRDebVj7gC48xaYKV7l8FoeyT29US1+Q93eWS3uvJU58Ltz8q/CQXueYt7+VvrywPbFIvW2J3JZ+Hf8x+BpDQ/hq7ED/37IQJD7t7//aJlC6dcAZ1PDZ8edvCwTuDuG2cAe2xtHhRPGju/jQ+OK/2X1nePgKvJd4YRuhIfwdNrtODzoiXIID7CwDjQ93CXcemecyaYzMAp/6LbzTo9m7T8k752+gi0emb+DcSGiMCFf7+/uvjP+pnvxC+IeqnkyU9v5zVHjn0bePZyncU+QMzXoMIXRk1o5no3ClLhqz/7pJr4QcpP6dcNDYuD5xycl4l/Ae/rzwO2nsDoHkqvq/iS/tNzxlHlLk4NHDDZvGBWjS40P3qvDv9/iDwifwFQ6N/eBEjWkA4/lbu+GoPwpgPyPbbuLz/XQ4S677Ifn3xUThFwHeGIIz/YF6SmnvNNkhcV8gUfVBi5i/CC0rfWcZzrlDYIhuGrTNpb30WDss46hPnHfQmJ84TDyu8PN0FraiqeoBfF1D+5m4sWf3yzYNerBvpl82m4S/omtlTMMwa5PG1dv92BwOQKsebyPuknh2oC8xeIR8z6fIV2DQsBKLRcPIvCNkq9LRe55lSX3iXpm0z3Db0tib8H24PYWG8fnLtEmnrLDO2sZb24z3ib2azEbb0XjReqtwX3g5YV7t0NiFPzE0aGxo0EbRxi0K+5ppJM5t2/2k4aZBr7N09HTV3LZZHwuGTieMwxMsbhr03POvmVtboe3WXYcxvyX8x6TxEGi84UFj+eLnJKA6aBy0aAx9aZ7gMNBgAFJP2UPtZdTcDoj/TBxqUThmniwBMf/8DYbGmwbZB7DZHsGzCik9G39CfvDkCv18xIDWgsbW75FCZGWVT5w5JQCNHcL55EKl8svuFjTGvzJOUPagUYV64G6DHHMnR7bjMYhzl4Uz6tf0ykcNSyv9+jWJ5U00Hs/uxGHrtBcMHCWMb5madf3yve0MDZrcLRpjr7sj8Yhw2s7+9a3GWfZAC71oDB6iDvuNNw3s8faX5kmDBnnrW6P6fby///ZT+2REBRKQmmgk7h/O7mACkq1FYdJoyNHXtydKP5p1beEnGlZHBSeNwmLTYUrPHLkKe+dBSgWgumh8AK8f08haOurtKUwrvWmUJqbxNQ5edsSrEbMRDA1sqb950RgRTv4y7llsDE6cN2Mr5BbMvZDBKsOfZxr5/NIRhga2nfEn+Xx++exB6xD1CVzmwHuPshC+rj7FLycIB4YGjo8nM/ny4NG7TzOZ5Vst4kaisBdXVPn8/MWTrWjgi4F0MiqcX8BnXbpdhde/4Zd0BQjJKb8u5DOZ+S/gwCPCK41M3kkDO//EtYSXHF8Frkfql4XdZmQq3SKvvrr1vZNGYv47GrtsGon5s0Y8Axs/8REJkcSCGBqJc1CNvmpE7Z1LkDteEBgaJJ0Y1SNcwtBPTNdm8NBpQqPwjDj1EjmTAHVQiV7U+JOqlWFBu79NkNIFZ4hy6ctpKz8tCi2KjRO83V07vjB0XLEiEw7+isJV8bvYUOZ5O3Es0xDn1DyE1gXDyI5bL829lmVykrqiSFXyn/IUf4Yhl/gF8nHV2IwGoHkcHskgRWFpwXmWknnaOtktUcJnkuAM9Vt3b8BlkwJ3mZwULtIc6FiG8xWO37DCW30rk7k3mO4b/Ubs9oG6cyMtio2Nof1GFBicuBmIxrMDYYbcuk1jpJti9o7a6sTsCsa24i/osYpq/xXhTPsh0aU7j2YvBRqQ6VrNn33+/Pn//MdLDY3+8PxM5+N8PfXUU0899dRTTx3q/7HRwX5eVg9LAAAAAElFTkSuQmCC;" vertex="1" parent="1">
          <mxGeometry x="352.96" y="280" width="143.09" height="100" as="geometry" />
        </mxCell>
        <mxCell id="dxmCOhg-madHTMXgipft-7" value="&lt;div style=&quot;background-color: rgb(255, 255, 254); font-weight: normal; font-size: 13px; line-height: 19px;&quot;&gt;&lt;div&gt;&lt;p style=&quot;font-size: 13px&quot;&gt;&lt;font style=&quot;font-size: 13px&quot;&gt;demeprdweuacrglobal&lt;/font&gt;&lt;/p&gt;&lt;p style=&quot;font-size: 13px&quot;&gt;&lt;font style=&quot;font-size: 13px&quot;&gt;repo: virtualfuelsensor&lt;/font&gt;&lt;/p&gt;&lt;/div&gt;&lt;/div&gt;" style="rounded=0;whiteSpace=wrap;html=1;fontSize=14;fontFamily=Helvetica;" vertex="1" parent="1">
          <mxGeometry x="325.16999999999996" y="220" width="210" height="60" as="geometry" />
        </mxCell>
        <mxCell id="dxmCOhg-madHTMXgipft-9" value="Build container" style="rounded=0;whiteSpace=wrap;html=1;fontFamily=Helvetica;fontSize=13;fontColor=#000000;" vertex="1" parent="1">
          <mxGeometry x="340" y="530" width="60" height="70" as="geometry" />
        </mxCell>
        <mxCell id="dxmCOhg-madHTMXgipft-10" value="Push container" style="rounded=0;whiteSpace=wrap;html=1;fontFamily=Helvetica;fontSize=13;fontColor=#000000;" vertex="1" parent="1">
          <mxGeometry x="450" y="530" width="60" height="70" as="geometry" />
        </mxCell>
        <mxCell id="dxmCOhg-madHTMXgipft-13" value="" style="endArrow=classic;html=1;rounded=0;fontSize=14;" edge="1" parent="1">
          <mxGeometry width="50" height="50" relative="1" as="geometry">
            <mxPoint x="400" y="564.5" as="sourcePoint" />
            <mxPoint x="450" y="564.5" as="targetPoint" />
          </mxGeometry>
        </mxCell>
        <mxCell id="XXanwsKrszcXTJeAJV5h-3" value="" style="edgeStyle=orthogonalEdgeStyle;rounded=0;orthogonalLoop=1;jettySize=auto;html=1;fontFamily=Helvetica;fontSize=13;fontColor=#000000;" edge="1" parent="1" source="dxmCOhg-madHTMXgipft-14" target="dxmCOhg-madHTMXgipft-6">
          <mxGeometry relative="1" as="geometry" />
        </mxCell>
        <mxCell id="sGtCZFfrhsEbg1tWWuAn-4" value="" style="edgeStyle=orthogonalEdgeStyle;rounded=0;orthogonalLoop=1;jettySize=auto;html=1;fontFamily=Helvetica;fontSize=13;fontColor=#000000;" edge="1" parent="1" source="dxmCOhg-madHTMXgipft-14" target="sGtCZFfrhsEbg1tWWuAn-3">
          <mxGeometry relative="1" as="geometry" />
        </mxCell>
        <mxCell id="dxmCOhg-madHTMXgipft-14" value="" style="rounded=0;whiteSpace=wrap;html=1;fontFamily=Helvetica;fontSize=13;fontColor=#000000;fillColor=none;dashed=1;" vertex="1" parent="1">
          <mxGeometry x="329" y="440" width="191" height="170" as="geometry" />
        </mxCell>
        <mxCell id="XXanwsKrszcXTJeAJV5h-5" value="" style="rounded=0;whiteSpace=wrap;html=1;fontFamily=Helvetica;fontSize=13;fontColor=#000000;fillColor=none;dashed=1;" vertex="1" parent="1">
          <mxGeometry x="730" y="440" width="173" height="170" as="geometry" />
        </mxCell>
        <mxCell id="XXanwsKrszcXTJeAJV5h-6" value="Azure releases" style="rounded=0;whiteSpace=wrap;html=1;dashed=1;fontFamily=Helvetica;fontSize=13;fontColor=#000000;fillColor=none;fontStyle=1" vertex="1" parent="1">
          <mxGeometry x="749.25" y="511.27" width="134.5" height="20" as="geometry" />
        </mxCell>
        <mxCell id="MKJuAwzSuJqEsFg8hKE7-1" value="" style="shape=umlActor;verticalLabelPosition=bottom;verticalAlign=top;html=1;outlineConnect=0;dashed=1;fontFamily=Helvetica;fontSize=13;fontColor=#000000;fillColor=none;" vertex="1" parent="1">
          <mxGeometry x="75" y="630" width="30" height="60" as="geometry" />
        </mxCell>
        <mxCell id="sGtCZFfrhsEbg1tWWuAn-1" value="manifest.yaml" style="rounded=0;whiteSpace=wrap;html=1;dashed=1;fontFamily=Helvetica;fontSize=13;fontColor=#000000;fillColor=default;" vertex="1" parent="1">
          <mxGeometry x="763" y="550" width="109.5" height="40" as="geometry" />
        </mxCell>
        <mxCell id="XXanwsKrszcXTJeAJV5h-4" value="" style="shape=image;verticalLabelPosition=bottom;labelBackgroundColor=default;verticalAlign=top;aspect=fixed;imageAspect=0;image=data:image/jpeg,/9j/4AAQSkZJRgABAQAAAQABAAD/2wCEAAoHCA8PDw8PDw8PDw8PDxAPDw8PDxEPDw8QGRQZGRgUGBgcIS4nHB4rHxgYJjgmKy80NTU1GiQ7QDs0RC40NTEBDAwMEA8QHxISHzQnJCs/MTE0NDQ0PzExMTQ0ND80NDQ0NDY/NDQ0NzQ0NDQ0NDE0NDQ0NDQ0MTQ0NDQ0NDQ0NP/AABEIAOEA4QMBIgACEQEDEQH/xAAcAAEAAQUBAQAAAAAAAAAAAAAABQECAwQGBwj/xABGEAACAQECCAUPDAMBAQAAAAAAAQIDBBEFBhIhMUFRYRZSgZHSBxUiMjQ1U1RxcnSTobGyExQjQmJzg5KzwdHhM4Lx8CT/xAAaAQEAAgMBAAAAAAAAAAAAAAAAAgUBAwQG/8QAMhEAAgECAQsCBgEFAAAAAAAAAAECAxEEEhMhMTJBUVJxkbEzYQUUItHh8IEjQqHB8f/aAAwDAQACEQMRAD8A9mAAAAAAAAAAAAAAAAAAAAAAAAAAAAAAAAAAAAAAAAAAAAAAAAAAAAAAAAAAAAAAAALZNJNt3JZ23oQBrW+20rPTlVrSUIR0t63qSWt7jhsIdUKplNWahFQ1Sq3ym/8AWLuXOQ2OGHHbbQ1B/wDz0W40lqm/rT5dW7ynPl5hfh8FFSqq7e7cvzxOCriZN2hqOr4e2/i0PVy6Q4e2/i0PVy6RygOz5WhyLsac9U5mdXw9t/Foerl0hw9t/Foerl0jlAPlaHIuwz1TmZ1fD238Wh6uXSHD238Wh6uXSOUA+Voci7DPVOZnV8PbfxaHq5dIcPbfxaHq5dI5QD5WhyLsM9U5mdXw9t/Foerl0jqcVcao25ujUiqdeMcpZL7CpHW4601s3nlZN4mtrCVlu481yZEjRiMHRdKTUUmk3o9idOvPLV3c9iAB54sgAAAAAAAAAAAAAAAAAAAAAcXj9hz5Kn80pP6StH6WSeeFLi+WXuv2nRYbwnTsVnnXnnyc0I65zeZRX/tF54zbLTOvUnWqSyp1JuUnvepbloLL4dhs5LOS1L/L/GvscuJq5KyVrfgxAoC9K8qCgAKgz2axVaueEJSXG0R52bXWS03X5MfJlxvIucYuzaMqLeojgZrRZKlLt4SgtrXYvlMBJNNXRgqCgAKk1ib3ysv3k/gkQhN4m98rL58/gka6/pT6PwTp7S6ryexgA8oW4AAAAAAAAAAAAAAAAAALW7tOjaXHGY+4d+Rp/NKUrqtVfSNPPCk9Xll7rzbRpSqzUI/89yM5qEcpnLY44d+e2jJpyvs9G+NO7ROX1p8uhblvOeAPUU6cacVCOpFTKTk8pgAGwiDoMEYHjcqlZXt54wehLbLfuI7AllVWvHKV8YdnJanc8y5zrjkxFVr6Ym6lC+llUUAOI3iUU000mnmaedM53DGB1BOrRXYrPOnxd63bjog1fmegnCbg7ojKKkrM4IG1hOzfI1pxXa35UPNedL9uQ1S0Turo5LW0AmsTe+Vl+8n8EiFJrE7vlZfPn8EjVX9KfR+CVPbXVeT2MAHlC4AAAAAAOPx4xseD4wpUFGVoqxck5K+FOGjKa1tvQtzPOpY44Vbbdtq59kKUVzKJK9VHvivR6fxTONL/AAeHpqim4pt6dKuV1apLLauTfC/Cvjtbmp9EcL8K+O1vy0+iQgOrM0+VdkasuXFk3wwwr47V5qfRHDDCvjtXmp9EhAMzT5V2RnLlxfcm+GGFfHavNT6I4YYV8dq81PokIBmafKuyGXLi+5PU8bcKyaSttXmp5l+UxWi0TqzdSrKU5yacpS7aTuuz8iNSz08lXvS9O7cZjZCnGOykuiSIOUnrZUFAbCJUFAAT+K6X0719guTsifOZxarKNWUH9eGbzo5/c2dOV2IX9R/x4OmnslAAaDYCpQqAczjOl8rB63Tz/mZDkjh+up2iSWdQShyrT7WRpZ0Vamjkm/qZUmsTe+Vl+8n8EiEJrE3vlZfvJ/BIV/Sn0fgzDaXVeT2QAHky3AAAAAAPHuqj3xj6PT+KZxx2HVS74r0en8UjjT02F9GPQq6u2y4FoN5rLgWgAuM9mp3vKehaN7MNODk0l/wkYRSSS0IykYZcACZgAAAAAAup1JQlGcXdKLUk9jR2ODrfC0QUlcprt4X54vb5DjC+jVnCSnCTjJaGjTVpKa9ycJ5J3YOes2MLSuqwyvtQdz5mbXCGhd2tW/Zkw6RxOhUW435yPElzQwrhGNCDSadSS7CN+j7T3EXasYJSV1KKh9qV0pc2ghalSU25SblJ6W3e2baeGd7z7EJVVqRSTbbbd7bvb2sAHcaATeJvfKy/eT+CRCE1ib3ysv3k/gkaq/pT6PwThtLqvJ7IADyZbgFAAVAAB471Ue+UfR6fxSONOy6qPfKPo9P4pHHHpsL6MehV1dtlAAbzWCpQ2LNTynlPQvawDPZ6eSr3pencthnLQTIlwLQZBcVpwc3kxV7fs3inBzajFXt+zeSdCkqauWdvtpbf6IydjKVykLPCMcm6+/tnrb/Y0bRRcHti9DJMx2iUFF5edbNbe4gnpJNEWCjKG0gXAtABcC0AFwLQAXHSYg2R1bfCaXY0ISqSepNpxiva+Yh8F4KtFsmqdCDm/rT0QgtspaF7z1fFvAcLBQyItTqzulWqXXZUloS+yr3ct72nBj8TGnTcP7no7nRh6TlJS3ImwAedLIAAAAAA8r6qWCK3y0LallUHThRk43305Jyactzv0nn59H1qMakZQnFShJOMoyV6knpTR45jrijOwSdagpTsc3mbd8qMm+0lu2Pke+6wGKUkqUta1e/58nDiKLTc1q3nJgAszlLqcHJpLWSUYqKSWhGvY4LJytbfsNgkkYYABIwC+FNzajFXtiFNzajFXt+zeSdGkoRuWdvtpbf6It2MpXFGkqauWdvtpbf6LwW1Kigr3/01khUqKCvf9tkZWqObvfItSQq1XN3vkWpIxmxKxFu4ABIwAAAADfwVgm0WyeRZ4OVz7ObzQgtspavJpMNqKu9CMpNuyNA7HF3EmrXyatqyqNF51TWarPy8Re06nF7FKz2K6pL6avmeXJLJg/sR1eV5zpimxPxK/wBNHv8Ab76+h2UsLvn2NWw2KlZ4KnRhGnBaIxXtb0t72bQBUttu7O0AAwAAAAAAAYbRQhVhKnUjGcJxcZwkk4yT0pozAA8Vx0xSlg+fytJSnZJyeTK5t0HxJvZsf76eVPo202eFWEqdSMZ05xcZwkr4yi9KZ43jfijVsNVSoxnVs1aajScU51ISeinLa9j1+UvMFjc5/TqP6tz4/k4K9HJ+qOrwc/YMuU40oQlOU5KMIwTlJyepJaTclBxk4yTjKLcZRkrnFrSmtTPTsSMUo2GCr11GVrmtOlUYNdpHftfIMb8VVak7RZ4qNoir5R0Kulq3S2PXrJx+I087kbuPv9iLw0snK38Dy8vpwc2oxV7fs3lY0puThktTTalF5nFrTfsJKjSVNXLO320tv9Fg5WOdK5WhSVNXLO320tv9F5Usq1FBXv8AtmskKtRQV75tbIutVc3e+RakhWqubvfItSRjNiViLYKgEjAAAAC3Z281y0mOdSMVe3ya2UwfXcrVZVoXzmhm/EiRbsrix2+LuJFWtk1bXlUaWlUbrqs1v4i9vkPRbHY6VCCp0acacI6IxVy8r2vebIPMYjE1K7+rVw3FtTpRp6gADnNgAAAAAAAAAAAABinWhF3OUU9jkkynzin4Sn+aJmzBmKFsZxkr01JbU00XmADXtVphRhKc5ZMYrO9b3LazYOPxsp2jLjJvKoaI5KeTB68rfvNtCmqk1Fu37u9yE5ZMbogMNzVprTrwhGEpXK6KSc0lmcnrZEMlCsMF1bTlOjBylGLlK7MnctF+16i+hKMI2ehIr5Jyd95DVKigr3yLayMq1XN3vkWpFbTObnJSTjKLcXBppxaedNbTEdiVjS3cFSgJGCpQFk6kYrO+TWwDIa1W0pZo53t1GCrXlLNoWz+TCRbM2LpSbd7d7NrBXdVm9JofqRNM3MFd1Wb0mh+pEhLZZlaz6KAB5MuAAAAAAAAAAAAAAADlMY/8/wCHH3siriWxi7o/Dj72RJa0fTj0OOe0zrMX+5o+dL3koReL/c0fOl7yUK6r6kup1Q2UDFWpRnFwmlKMldKL0NGUGskcbacW6irqNN30Z51OX1FrT2vZtOosNjhZ4KFNXJZ29cntbNoG6pXnUSUt37pIRpxi7o47HDFVWpO0WeKjaIq+UVmVdLV5+x69Z5hOLi3GScZRbjKLVzTWlNHtWHsNULBQlWry2qnBdvVndmjFfvqPFcJYana7RUtFWMYupJPJgrowSVyW/MtOstvhlWrKFpbK1P8A108eOLFRinda9/3KAxStEEr8pPctJqVa8p7lsX7lo2cpnq2lLNHO9uo1ZSbd7d7LQRMgAAA3MFd1Wb0mh+pE0zbwV3VZfSaH6kSMtlmVrPosAHky4AAAAAAAAAAAAAAAOUxj/wA/4cfeyJJXGT/P/pH3siy1o+nE5J7TOsxe7mj50veShB4FttGFCMZVIRllSdzefSSHXKz+GhznBVhLLeg6INZK0m4DT65Wfw0OcdcrP4aHOa8iXBkspcTcBjp1IzipRaaedNaGZCJk8p6p2BrWq3zxzlWszSildmsujsbl9VvPlbdOo8/PpGtSjUhKE4qUJxcZRavUotXNNHj2O+KErDN16CcrJOWjPJ0JP6r+zsfIXWAxaklSloa0L3/Pnrr4cRRabmv39/dBx4ALQ5AAAAAAAbeCu6rL6TQ/Uiaht4K7qsvpND9SJGWyzK1n0WADyZcAAAAAAAAAAAAAAAHJ4yf5/wDSPvZFk7huw1qlbKhByjkRV6a03veR/Wm0+Clzx/ks6M4qCV0cs4vKeg0gbvWm0+Clzx/kdabT4KXPH+TZnI8V3IZL4GkDd602nwUueP8AI602nwUueP8AIzkeK7jJfA6TAvc1Lzf3ZvmngulKFCnCSulGNzWzOzcKubvN9WdkdSBjq04zi4TipRkmpRkr1JPSmjICBk8Zx3xPnYZOvQUpWSTz65UG3of2dj5zjz6RrUoVIyhOMZQknGUZJNST0po8nxmxBtFOtlWCm61Go5SVNSjGVF8Xsmr47GXeDxyksiq9PHj19/PXXw1qFvqgv4OGBP8AArC3ic/WUukV4FYW8Tn6yl0juz9Lnj3Rz5E+D7M58E/wKwt4nP1lLpFeBWFvE5+spdIZ+lzx7oZE+D7M5828E912b0mh+pElOBWFvE5+spdI6bEzEW0U7RTtNtjGnGjJVKdHKjOUprPFyuzJJ3PypGuriaUYN5SfR38EoUpt2sz1EAHmi0AAAAAAAAAAAAAAAAAAAAAAAAAAAAAAAAAAAAAAAAAAAAAAAAAAAAAAAAAAAAAAAAAABQAAFQAAAAAAAAAAAAAAAAAAAAAAAAAAAAAAAD//2Q==;" vertex="1" parent="1">
          <mxGeometry x="781.5" y="441" width="70" height="70" as="geometry" />
        </mxCell>
        <mxCell id="h0TOoBEolQF3xnehSfSN-1" style="edgeStyle=orthogonalEdgeStyle;rounded=0;orthogonalLoop=1;jettySize=auto;html=1;entryX=0;entryY=0.5;entryDx=0;entryDy=0;fontFamily=Helvetica;fontSize=13;fontColor=#000000;" edge="1" parent="1" source="sGtCZFfrhsEbg1tWWuAn-3" target="XXanwsKrszcXTJeAJV5h-5">
          <mxGeometry relative="1" as="geometry" />
        </mxCell>
        <mxCell id="sGtCZFfrhsEbg1tWWuAn-3" value="Copy manifest.yaml" style="rounded=0;whiteSpace=wrap;html=1;fontFamily=Helvetica;fontSize=13;fontColor=#000000;fillColor=default;dashed=1;" vertex="1" parent="1">
          <mxGeometry x="560" y="497.5" width="130" height="55" as="geometry" />
        </mxCell>
      </root>
    </mxGraphModel>
  </diagram>
  <diagram id="v64-8ON8vo7COOkr1p-Q" name="Page-2">
    <mxGraphModel dx="1422" dy="752" grid="1" gridSize="10" guides="1" tooltips="1" connect="1" arrows="1" fold="1" page="1" pageScale="1" pageWidth="827" pageHeight="1169" math="0" shadow="0">
      <root>
        <mxCell id="U8MMu1Hci0-3d4CcCa-D-0" />
        <mxCell id="U8MMu1Hci0-3d4CcCa-D-1" parent="U8MMu1Hci0-3d4CcCa-D-0" />
        <mxCell id="U8MMu1Hci0-3d4CcCa-D-2" value="&lt;div style=&quot;color: rgb(0, 0, 0); background-color: rgb(255, 255, 254); font-family: &amp;quot;consolas&amp;quot;, &amp;quot;courier new&amp;quot;, monospace; font-weight: normal; font-size: 14px; line-height: 19px;&quot;&gt;&lt;div&gt;&lt;span style=&quot;color: #008080&quot;&gt;trigger&lt;/span&gt;&lt;span style=&quot;color: #000000&quot;&gt;:&lt;/span&gt;&lt;/div&gt;&lt;div&gt;&lt;span style=&quot;color: #000000&quot;&gt;-&amp;nbsp;&lt;/span&gt;&lt;span style=&quot;color: #0451a5&quot;&gt;manual&lt;/span&gt;&lt;/div&gt;&lt;br&gt;&lt;div&gt;&lt;span style=&quot;color: #008080&quot;&gt;parameters&lt;/span&gt;&lt;span style=&quot;color: #000000&quot;&gt;:&lt;/span&gt;&lt;/div&gt;&lt;div&gt;&lt;span style=&quot;color: #000000&quot;&gt;-&amp;nbsp;&lt;/span&gt;&lt;span style=&quot;color: #008080&quot;&gt;name&lt;/span&gt;&lt;span style=&quot;color: #000000&quot;&gt;:&amp;nbsp;&lt;/span&gt;&lt;span style=&quot;color: #0451a5&quot;&gt;containerTag&lt;/span&gt;&lt;/div&gt;&lt;div&gt;&lt;span style=&quot;color: #000000&quot;&gt;&amp;nbsp;&amp;nbsp;&lt;/span&gt;&lt;span style=&quot;color: #008080&quot;&gt;type&lt;/span&gt;&lt;span style=&quot;color: #000000&quot;&gt;:&amp;nbsp;&lt;/span&gt;&lt;span style=&quot;color: #0451a5&quot;&gt;string&lt;/span&gt;&lt;/div&gt;&lt;br&gt;&lt;div&gt;&lt;span style=&quot;color: #008080&quot;&gt;resources&lt;/span&gt;&lt;span style=&quot;color: #000000&quot;&gt;:&lt;/span&gt;&lt;/div&gt;&lt;div&gt;&lt;span style=&quot;color: #000000&quot;&gt;-&amp;nbsp;&lt;/span&gt;&lt;span style=&quot;color: #008080&quot;&gt;repo&lt;/span&gt;&lt;span style=&quot;color: #000000&quot;&gt;:&amp;nbsp;&lt;/span&gt;&lt;span style=&quot;color: #0451a5&quot;&gt;self&lt;/span&gt;&lt;/div&gt;&lt;br&gt;&lt;div&gt;&lt;span style=&quot;color: #008080&quot;&gt;steps&lt;/span&gt;&lt;span style=&quot;color: #000000&quot;&gt;:&lt;/span&gt;&lt;/div&gt;&lt;div&gt;&lt;span style=&quot;color: #000000&quot;&gt;&amp;nbsp;&amp;nbsp;-&amp;nbsp;&lt;/span&gt;&lt;span style=&quot;color: #008080&quot;&gt;task&lt;/span&gt;&lt;span style=&quot;color: #000000&quot;&gt;:&amp;nbsp;&lt;/span&gt;&lt;span style=&quot;color: #0451a5&quot;&gt;CopyFiles@2&lt;/span&gt;&lt;/div&gt;&lt;div&gt;&lt;span style=&quot;color: #000000&quot;&gt;&amp;nbsp;&amp;nbsp;&amp;nbsp;&amp;nbsp;&lt;/span&gt;&lt;span style=&quot;color: #008080&quot;&gt;displayName&lt;/span&gt;&lt;span style=&quot;color: #000000&quot;&gt;:&amp;nbsp;&lt;/span&gt;&lt;span style=&quot;color: #0451a5&quot;&gt;Copy&amp;nbsp;manifest&amp;nbsp;files&amp;nbsp;to&amp;nbsp;artifacts&amp;nbsp;staging&amp;nbsp;directory&lt;/span&gt;&lt;/div&gt;&lt;div&gt;&lt;span style=&quot;color: #000000&quot;&gt;&amp;nbsp;&amp;nbsp;&amp;nbsp;&amp;nbsp;&lt;/span&gt;&lt;span style=&quot;color: #008080&quot;&gt;inputs&lt;/span&gt;&lt;span style=&quot;color: #000000&quot;&gt;:&lt;/span&gt;&lt;/div&gt;&lt;div&gt;&lt;span style=&quot;color: #000000&quot;&gt;&amp;nbsp;&amp;nbsp;&amp;nbsp;&amp;nbsp;&amp;nbsp;&amp;nbsp;&lt;/span&gt;&lt;span style=&quot;color: #008080&quot;&gt;contents&lt;/span&gt;&lt;span style=&quot;color: #000000&quot;&gt;:&amp;nbsp;&lt;/span&gt;&lt;span style=&quot;color: #0451a5&quot;&gt;&#39;manifest.yaml&#39;&lt;/span&gt;&lt;/div&gt;&lt;div&gt;&lt;span style=&quot;color: #000000&quot;&gt;&amp;nbsp;&amp;nbsp;&amp;nbsp;&amp;nbsp;&amp;nbsp;&amp;nbsp;&lt;/span&gt;&lt;span style=&quot;color: #008080&quot;&gt;targetFolder&lt;/span&gt;&lt;span style=&quot;color: #000000&quot;&gt;:&amp;nbsp;&lt;/span&gt;&lt;span style=&quot;color: #0451a5&quot;&gt;$(Build.ArtifactStagingDirectory)&lt;/span&gt;&lt;/div&gt;&lt;div&gt;&lt;span style=&quot;color: #000000&quot;&gt;&amp;nbsp;&amp;nbsp;-&amp;nbsp;&lt;/span&gt;&lt;span style=&quot;color: #008080&quot;&gt;task&lt;/span&gt;&lt;span style=&quot;color: #000000&quot;&gt;:&amp;nbsp;&lt;/span&gt;&lt;span style=&quot;color: #0451a5&quot;&gt;PublishBuildArtifacts@1&lt;/span&gt;&lt;/div&gt;&lt;div&gt;&lt;span style=&quot;color: #000000&quot;&gt;&amp;nbsp;&amp;nbsp;&amp;nbsp;&amp;nbsp;&lt;/span&gt;&lt;span style=&quot;color: #008080&quot;&gt;displayName&lt;/span&gt;&lt;span style=&quot;color: #000000&quot;&gt;:&amp;nbsp;&lt;/span&gt;&lt;span style=&quot;color: #0451a5&quot;&gt;Publish&amp;nbsp;artifacts&lt;/span&gt;&lt;/div&gt;&lt;div&gt;&lt;span style=&quot;color: #000000&quot;&gt;&amp;nbsp;&amp;nbsp;&amp;nbsp;&amp;nbsp;&lt;/span&gt;&lt;span style=&quot;color: #008080&quot;&gt;inputs&lt;/span&gt;&lt;span style=&quot;color: #000000&quot;&gt;:&lt;/span&gt;&lt;/div&gt;&lt;div&gt;&lt;span style=&quot;color: #000000&quot;&gt;&amp;nbsp;&amp;nbsp;&amp;nbsp;&amp;nbsp;&amp;nbsp;&amp;nbsp;&lt;/span&gt;&lt;span style=&quot;color: #008080&quot;&gt;pathToPublish&lt;/span&gt;&lt;span style=&quot;color: #000000&quot;&gt;:&amp;nbsp;&lt;/span&gt;&lt;span style=&quot;color: #0451a5&quot;&gt;$(Build.ArtifactStagingDirectory)&lt;/span&gt;&lt;/div&gt;&lt;div&gt;&lt;span style=&quot;color: #000000&quot;&gt;&amp;nbsp;&amp;nbsp;&amp;nbsp;&amp;nbsp;&amp;nbsp;&amp;nbsp;&lt;/span&gt;&lt;span style=&quot;color: #008080&quot;&gt;artifactName&lt;/span&gt;&lt;span style=&quot;color: #000000&quot;&gt;:&amp;nbsp;&lt;/span&gt;&lt;span style=&quot;color: #0451a5&quot;&gt;manifest&lt;/span&gt;&lt;/div&gt;&lt;div&gt;&lt;span style=&quot;color: #000000&quot;&gt;&amp;nbsp;&amp;nbsp;-&amp;nbsp;&lt;/span&gt;&lt;span style=&quot;color: #008080&quot;&gt;task&lt;/span&gt;&lt;span style=&quot;color: #000000&quot;&gt;:&amp;nbsp;&lt;/span&gt;&lt;span style=&quot;color: #0451a5&quot;&gt;Docker@2&lt;/span&gt;&lt;/div&gt;&lt;div&gt;&lt;span style=&quot;color: #000000&quot;&gt;&amp;nbsp;&amp;nbsp;&amp;nbsp;&amp;nbsp;&lt;/span&gt;&lt;span style=&quot;color: #008080&quot;&gt;displayName&lt;/span&gt;&lt;span style=&quot;color: #000000&quot;&gt;:&amp;nbsp;&lt;/span&gt;&lt;span style=&quot;color: #0451a5&quot;&gt;Build&amp;nbsp;and&amp;nbsp;Push&amp;nbsp;Container&lt;/span&gt;&lt;/div&gt;&lt;div&gt;&lt;span style=&quot;color: #000000&quot;&gt;&amp;nbsp;&amp;nbsp;&amp;nbsp;&amp;nbsp;&lt;/span&gt;&lt;span style=&quot;color: #008080&quot;&gt;inputs&lt;/span&gt;&lt;span style=&quot;color: #000000&quot;&gt;:&lt;/span&gt;&lt;/div&gt;&lt;div&gt;&lt;span style=&quot;color: #000000&quot;&gt;&amp;nbsp;&amp;nbsp;&amp;nbsp;&amp;nbsp;&amp;nbsp;&amp;nbsp;&lt;/span&gt;&lt;span style=&quot;color: #008080&quot;&gt;command&lt;/span&gt;&lt;span style=&quot;color: #000000&quot;&gt;:&amp;nbsp;&lt;/span&gt;&lt;span style=&quot;color: #0451a5&quot;&gt;buildAndPush&lt;/span&gt;&lt;/div&gt;&lt;div&gt;&lt;span style=&quot;color: #000000&quot;&gt;&amp;nbsp;&amp;nbsp;&amp;nbsp;&amp;nbsp;&amp;nbsp;&amp;nbsp;&lt;/span&gt;&lt;span style=&quot;color: #008080&quot;&gt;containerRegistry&lt;/span&gt;&lt;span style=&quot;color: #000000&quot;&gt;:&amp;nbsp;&lt;/span&gt;&lt;span style=&quot;color: #0451a5&quot;&gt;demeprdweuacrglobal&lt;/span&gt;&lt;/div&gt;&lt;div&gt;&lt;span style=&quot;color: #000000&quot;&gt;&amp;nbsp;&amp;nbsp;&amp;nbsp;&amp;nbsp;&amp;nbsp;&amp;nbsp;&lt;/span&gt;&lt;span style=&quot;color: #008080&quot;&gt;repository&lt;/span&gt;&lt;span style=&quot;color: #000000&quot;&gt;:&amp;nbsp;&lt;/span&gt;&lt;span style=&quot;color: #0451a5&quot;&gt;virtualfuelsensor&lt;/span&gt;&lt;/div&gt;&lt;div&gt;&lt;span style=&quot;color: #000000&quot;&gt;&amp;nbsp;&amp;nbsp;&amp;nbsp;&amp;nbsp;&amp;nbsp;&amp;nbsp;&lt;/span&gt;&lt;span style=&quot;color: #008080&quot;&gt;tags&lt;/span&gt;&lt;span style=&quot;color: #000000&quot;&gt;:&amp;nbsp;|&lt;/span&gt;&lt;/div&gt;&lt;div&gt;&lt;span style=&quot;color: #0451a5&quot;&gt;&amp;nbsp;&amp;nbsp;&amp;nbsp;&amp;nbsp;&amp;nbsp;&amp;nbsp;&amp;nbsp;&amp;nbsp;${{&amp;nbsp;parameters.containerTag&amp;nbsp;}}&lt;/span&gt;&lt;/div&gt;&lt;/div&gt;" style="text;whiteSpace=wrap;html=1;fontSize=14;" vertex="1" parent="U8MMu1Hci0-3d4CcCa-D-1">
          <mxGeometry x="40" y="240" width="550" height="570" as="geometry" />
        </mxCell>
        <mxCell id="KoaRc8MvvKgN26CstQTl-0" value="" style="shape=image;verticalLabelPosition=bottom;labelBackgroundColor=default;verticalAlign=top;aspect=fixed;imageAspect=0;image=data:image/png,iVBORw0KGgoAAAANSUhEUgAAAOEAAADgCAMAAADCMfHtAAAArlBMVEX///8lYOAPRr2RsPIAAABMgPAXWt9ymvKOrvIRWN+XtPPw9PvCwsIAQLzi6fvu7u6CnusAMLigsu4vLy8AOrovZuDPz893d3fQ3PlpaWnl5eWntuLY2Ni4uLhShO8kUcA+Pj4PDw8aUs2fn5+WlpY3buayx/YAU95hYWGNjY1ij/FfhOaBgYEjIyOFpu42NjZpj+g/cuS7zPVRUVFXdctDZsaWptw0XcMAHLV+k9UV5ZoRAAAKt0lEQVR4nO3de2OqOBYAcHxRX0W7tlgtWF+tj2r11pnZ3e//xTYkBMIj5gABQpfzx/RWSeDHOSTRy2U0rY466vh/DuOzO04f3c9B2YD7YYwbu56eJXa9f5WNuBfjnd7IHLtr2QxuGC+97D6H+Fm2hBOGLiGBOHplU+JjIA3Y2L2WjYmNL2nAhpqDzedOGlBN4UDOIKOwUGKNqimUWaNKCqXWqJJCqTWqolBujSooHEgGqieUXKPqCWXXqHJC6TWqnFB6jaomlF+jiglzqFHFhDnUqFrCBDWKv2eqnBC4HtX1l87XFcXiowFRKiQE1Wjv4/rd7/dbrRb6b3e8aAgbqSOE1Kj+59vB+dFvXUVGZYSAGtVfxkEfNnYX91sqIxTXqN6J8IjxoRJCcY32vqIJdInfFRCKa1Q/8oAouuoLF6Ia1bkZxPHNb6+GUFyjH3eB6FrkEpUQAmr0+y4QETs8ohJC4TgqqFF8KaosBMz1Ih9KIu80KSAEzPXiFPKTqIAQMNeLrkJyJaoqBNSoYCB1gzOcli6ErEchRcotU5nCQZoAfGbSHyDAVv8lX+E/70+pAvChEHQZIuGfPIVG87mZKsQ+JAQBW/34pZ8c4eD5MT8gZDbEwq8cc/hXSuBaqvCYXw4HT+mAwBRCqzTHHL7leBE24CNN/JRfphBYow19DBN+KCcEAhv6FTTjt+JblyiEAhuNDkg4znFNk0oIrVEnQEXKWR2VJ0wABC3b+pzGpQkTAGEfLnjf1JQlTFKjoNGUs+4uT5gI2Gi8iJLYv+b6PU1yYUKg+CMi/2vvcoTJahQfZ8xfyrApjJ/tyxMmBqK4t3Tjf1takjAN8B6R88mwPGHyGiXBLdQ7GSxHmBLIGW7645e734SUIEwLjP1LYOFfAZcgTFujxPjx0PKR/f54Ibwdo3hhFqBjbHSu4+9uq/s9vi4gt5sULswIxEjHBb5lqGhhphpNFUULocfFW0crLwQDF/FfYCsvhNboy6LTkUXs/RQpTACURtwZBQoTAaURJQChQmCNUqAcYu+7QGFSoBSilCIFCpMDJRDlpBAmhNVoENjJOmnoH1KAMGEaYNYs6g1JD1WACFMCO4sMq5ueLCBECKrRGGCH/xWTMCQ+TwEgLB6oS1nMgIXFA3dfMp9rIhRCalQqUO/JfRyGUFg0UG4CAcKCgbr855m83b8XA1CjMoG7RQ5PFvrrbhILBeaQQCGxUOCuI2WlHRN/c4niGpUH1Hc53kzKJRYI3P3JK4H3iMUBc00gjn/H3b4nrFFpwF6+CeQSiwLqu1buPk0bvEeJBQF7H/knkEMsBriT811FKmIRwKISGE+8N9JIAhaXQEJsPkKTKAfYeyn6iXNgohzgblywzyHCLkUpwOITiMMIL27i/mGTFODuoQxfhPj4/hp9KICcEi3vmY8G+4n42Yg+qlNOiZb5CF0mi8/OXBUiSgGuH0t9SLCXxScyGQeIUoCo/Mt9DPIrIT7RS4UhygCum6ULCfHJ/9rZoEIZQDKElf0o65+n5tMb87tLlABcN9UQaj//eQv8jokSgN40VLpQC6/4ETE7cN1USBgJIzuQXUooKBxcMwLXTbWFg4eHYyZgcLmrnhABI8QkwHVTcSEGhohJgM1wqCZ0gQFiAmA4geoJPSBDTACM+lQTMkCPCAfGJFA1ofHwECHCgbE+1YTXCBF8r1N8AlUTasYxRLz/71zECVROGCIefwyYkJvAgoXG548Xn5yvh1ji8RP9Dnla6T1gocLX764fvBsFfOIRbyLO4l1fwcKu/0+tuELt9cgCxVkUABUUusSjt8FdosinpBATj8z7Bv8xX2KgkkLt53gMvM3LIsCnqFD7Cb0bTwQBFRVGIo4I8lVGGJ00YAmskPDtMVUCqyN0btxMk8DKCMmdqSkSWBUhvfV2nTiBFREy9xavE/KqIRTcPF19YUag+sKsQPWFxmPKx0lWRqgZaR8JWhkhyuJvF0bvnvp1wmxZrIQwE7EawizEiggzEKsiTE8sT2hwQy6xLGGryw3eHecpJ43ShPzo8tqny2KVhMFbbn+lMFUWqyVMcy1WTJgii1UTJs9i5YSJie/F4HDIESYkPv+3EBsJScJkxKcib8WQJUwy3Dy9CXuTGNKEaOoHGR+fiwVqr87/2BUQgK6Md0j8/Y9adwvVUUcdddRRRx111FFHHXXUUUcdddRRRx111FFHHXXUkSJG2w0KuX2aGxq26b5kTU/TA6w1arYdoZ8H1GQu4Wg2bSdk9OTHoc3EFr80RH86w1o7jRzhGf00hVuL48IchqzYssL20nnJEU5grVeucCJHOCdHscreExNBYfukESFwJ1S4kiOkBWVl78oPR3ieo7DINYBeGji/wlpTIbzF3XCK/eKe5yRh2SP6B9schd7c+hed3Y7NxMAyA0fP9kKFoZgPh/PAr3bgd9SDHZcm0zkW06+gOVtdaDdL9GOI36FXhfOKNp+4h30iW96CfTNCPG4M/etwiC963Oxs0+3dQrqZASHd46y9altzPF5c6Lkyl+wwhk7kyr0gIqfmhNPnn2eYcO42YLYOzDcC4WbvNpqSfa68XrZxQmdrm24xZE+JsxtMmgUOOhDkUGfe3iyQ8EaajdiNh/HCUYzQFznnZcD2YnOEftD+aTidYv9yhvO6DwKHpM2QNtVGNo4t7SxeiOIyISfGeddaeu0jQrzNPChEZWOaB7qLKe5loFk394VY4W0+muMNLPeszUbaaOOeJTpzDqNJpMmjp4/G2e2LJzx46bG87Zn2jnB1QHHC6TprISHe1Hb/1G7TS2RCXogTrrwdmqRGbxrtY+WvEbT9cjkJDgltphMmvcs2hcUL9173ZEd4YTQNCpmwQ8KVfxpPeKxbal6Hs3jhlj0FF++c4G3nmLE6xc2dNt2dHUjvzE0+V2h7rMsMx83HRoX46FjhjGx1wOcq1MuFM9KwQqfTPW4xJauCm7unyyE8Xzjv7C3TNP3acfdM58d4ITlbp2CmmFUnI1ydyKQVnC2883sLrmHbzoUYJ/SPwQ4OcPgVZkzfBy7D0KY3f8deycYLrTghM9RsKdjfXa5CdvoILA03oU3x8eD54kI38YV0vPKFmzZvxe4J/WCF7hXrnKEZ7iX4sUok1IKn0w2TzrLszLwMCZ33Rr6VboKrl45jjNBuR2YfmNB9i+xy2A5cwhAhM9Lg8BZsw0nwkHD1bkwSSzdzkwAQT1a4ySkq9NDkIJhECITkNOMKsrwlgdvLCSB0SnKJXzBxOjfe76GTvmWzjfc3J8PocooHqr3pvjwb2qQCgkIyV2/nI2tPGoOFqMchbjyhvRxoLxZAiE/KcjgauUMGvrAOqAleEzAXzrnNTGI4oQdv3MVhs4NRdKTRBitmY7b8BUK/mUWPg4ZzeEJhcAAZhdZ1fgGafnnQ1quI0OvMnrr7u/hCbeRfyZGVd+jjLr3+8Hw4ZXaATpS/U3z+6WHSsc0XeksnbyHurrwv/kEzF6g9nU5noV9H26kfM7yxuV+1z3tL26AXHNkB/fQLckiObhb8qOr0FfrAac3IS44QTfPnQKNgL/hA0M+Tu0e6Z/IKEYwOOPMTemJtcq7P0U9PEmJkJfkkToSoVehQkvWCW8wtto8B6iEPXuKgwt8btbD68fuF5vkymYo3q6OOOqof/wMm4WPFdeRt4QAAAABJRU5ErkJggg==;" vertex="1" parent="U8MMu1Hci0-3d4CcCa-D-1">
          <mxGeometry x="101" y="50" width="80.35" height="80" as="geometry" />
        </mxCell>
        <mxCell id="KoaRc8MvvKgN26CstQTl-1" value="Build container" style="rounded=0;whiteSpace=wrap;html=1;fontFamily=Helvetica;fontSize=13;fontColor=#000000;" vertex="1" parent="U8MMu1Hci0-3d4CcCa-D-1">
          <mxGeometry x="51" y="130" width="60" height="70" as="geometry" />
        </mxCell>
        <mxCell id="KoaRc8MvvKgN26CstQTl-2" value="Push container" style="rounded=0;whiteSpace=wrap;html=1;fontFamily=Helvetica;fontSize=13;fontColor=#000000;" vertex="1" parent="U8MMu1Hci0-3d4CcCa-D-1">
          <mxGeometry x="161" y="130" width="60" height="70" as="geometry" />
        </mxCell>
        <mxCell id="KoaRc8MvvKgN26CstQTl-3" value="" style="endArrow=classic;html=1;rounded=0;fontSize=14;" edge="1" parent="U8MMu1Hci0-3d4CcCa-D-1">
          <mxGeometry width="50" height="50" relative="1" as="geometry">
            <mxPoint x="111" y="164.5" as="sourcePoint" />
            <mxPoint x="161" y="164.5" as="targetPoint" />
          </mxGeometry>
        </mxCell>
        <mxCell id="KoaRc8MvvKgN26CstQTl-4" value="" style="rounded=0;whiteSpace=wrap;html=1;fontFamily=Helvetica;fontSize=13;fontColor=#000000;fillColor=none;dashed=1;" vertex="1" parent="U8MMu1Hci0-3d4CcCa-D-1">
          <mxGeometry x="40" y="40" width="191" height="170" as="geometry" />
        </mxCell>
      </root>
    </mxGraphModel>
  </diagram>
</mxfile>
